<?xml version="1.0" standalone="no"?>
<!DOCTYPE svg PUBLIC "-//W3C//DTD SVG 20010904//EN"
 "http://www.w3.org/TR/2001/REC-SVG-20010904/DTD/svg10.dtd">
<svg version="1.0" xmlns="http://www.w3.org/2000/svg"
 width="8000.000000pt" height="2887.000000pt" viewBox="0 0 8000.000000 2887.000000"
 preserveAspectRatio="xMidYMid meet">

<g transform="translate(0.000000,2887.000000) scale(0.100000,-0.100000)"
fill="#000000" stroke="none">
<path d="M22370 28055 c0 -15 -14 -20 -95 -30 -30 -4 -57 -15 -69 -27 -12 -13
-26 -18 -39 -14 -12 3 -41 0 -64 -6 -32 -8 -43 -15 -43 -29 0 -15 -7 -19 -39
-19 -50 0 -91 -15 -91 -34 0 -15 -29 -26 -71 -26 -17 0 -32 -9 -42 -24 -11
-15 -29 -25 -57 -30 -29 -5 -44 -12 -47 -26 -3 -13 -18 -21 -45 -25 -29 -5
-42 -13 -48 -31 -6 -14 -18 -24 -29 -24 -10 0 -24 -7 -32 -16 -7 -8 -30 -24
-50 -35 -35 -17 -59 -36 -115 -89 -12 -11 -26 -20 -31 -20 -6 0 -24 -13 -39
-29 -16 -15 -41 -31 -56 -35 -19 -4 -28 -13 -28 -25 0 -13 -9 -21 -29 -26 -17
-3 -31 -14 -34 -25 -3 -11 -16 -24 -30 -29 -13 -5 -27 -17 -30 -25 -4 -9 -18
-21 -32 -26 -14 -5 -25 -13 -25 -17 0 -5 -47 -48 -105 -98 -58 -49 -105 -93
-105 -97 0 -5 -7 -8 -15 -8 -9 0 -20 -11 -26 -24 -6 -13 -22 -29 -35 -35 -13
-6 -24 -17 -24 -25 0 -8 -13 -19 -30 -25 -16 -5 -30 -17 -30 -26 0 -8 -11 -20
-24 -25 -13 -5 -27 -17 -30 -28 -4 -10 -18 -24 -31 -30 -14 -6 -25 -18 -25
-27 0 -8 -4 -15 -10 -15 -13 0 -160 -146 -160 -159 0 -6 -7 -11 -15 -11 -8 0
-21 -13 -30 -30 -9 -16 -23 -30 -31 -30 -9 0 -18 -9 -21 -21 -3 -11 -16 -25
-29 -30 -14 -5 -24 -17 -24 -28 0 -12 -9 -21 -24 -25 -15 -4 -26 -14 -28 -29
-2 -14 -11 -23 -25 -25 -14 -2 -25 -13 -29 -27 -3 -14 -15 -27 -25 -30 -10 -4
-19 -11 -19 -16 0 -5 -21 -31 -47 -58 -54 -55 -131 -141 -165 -185 -13 -16
-35 -41 -50 -55 -16 -14 -28 -31 -28 -38 0 -8 -11 -19 -25 -25 -14 -6 -25 -20
-25 -30 0 -11 -11 -23 -25 -28 -15 -6 -25 -17 -25 -30 0 -11 -4 -20 -9 -20 -4
0 -36 -36 -71 -80 -35 -44 -66 -80 -70 -80 -5 0 -13 -13 -18 -29 -6 -16 -20
-32 -31 -36 -12 -3 -21 -10 -21 -15 0 -5 -21 -39 -47 -75 -27 -37 -53 -76 -59
-87 -6 -10 -21 -26 -33 -34 -11 -8 -21 -22 -21 -29 0 -8 -10 -21 -23 -30 -13
-8 -29 -31 -37 -50 -8 -19 -19 -35 -26 -35 -6 0 -19 -18 -28 -40 -9 -23 -23
-43 -31 -46 -8 -4 -15 -11 -15 -16 0 -5 -16 -29 -35 -52 -19 -24 -35 -50 -35
-58 0 -9 -7 -18 -15 -22 -8 -3 -20 -17 -25 -31 -5 -14 -16 -25 -24 -25 -8 0
-24 -20 -36 -44 -11 -24 -27 -47 -35 -50 -8 -3 -15 -15 -15 -27 0 -12 -13 -37
-30 -56 -16 -18 -30 -44 -30 -56 0 -13 -9 -26 -22 -32 -14 -6 -24 -21 -26 -36
-2 -15 -16 -39 -33 -55 -16 -15 -29 -38 -29 -52 0 -15 -7 -26 -20 -29 -11 -3
-20 -14 -20 -24 0 -10 -4 -21 -10 -24 -5 -3 -10 -15 -10 -25 0 -10 -8 -23 -17
-28 -16 -10 -29 -30 -67 -108 -62 -125 -76 -160 -76 -189 0 -25 -4 -32 -17
-31 -11 1 -20 -11 -28 -37 -6 -22 -20 -46 -32 -55 -14 -11 -23 -34 -28 -67 -4
-33 -14 -56 -27 -66 -15 -12 -22 -33 -27 -84 -5 -42 -13 -72 -23 -79 -26 -19
-34 -49 -32 -124 1 -65 -1 -76 -21 -96 -31 -31 -39 -98 -33 -289 5 -157 11
-187 33 -187 8 0 16 8 18 18 4 13 5 11 6 -5 0 -13 6 -23 11 -23 6 0 10 -22 10
-50 0 -45 3 -50 25 -56 14 -3 25 -12 25 -19 0 -6 9 -20 20 -30 11 -10 20 -24
20 -32 0 -7 7 -13 15 -13 8 0 15 -4 15 -10 0 -5 7 -10 15 -10 8 0 15 -4 15 -9
0 -5 8 -11 18 -14 11 -2 22 -17 25 -36 5 -25 12 -31 31 -31 27 0 56 -24 56
-46 0 -7 11 -16 24 -20 15 -3 26 -14 28 -27 2 -16 11 -23 33 -25 29 -4 81 -32
57 -32 -30 0 -8 -18 29 -24 28 -4 43 -12 46 -25 3 -10 21 -24 44 -31 21 -7 46
-24 54 -37 9 -13 21 -23 28 -22 26 3 37 -2 37 -16 0 -24 -75 -20 -100 5 -11
11 -38 27 -59 36 -22 9 -42 22 -45 29 -2 7 -19 16 -36 20 -17 4 -43 18 -58 32
-14 13 -39 27 -54 30 -15 3 -28 9 -28 14 0 5 -7 6 -15 3 -12 -5 -12 -10 -2
-29 15 -28 106 -110 175 -158 28 -21 74 -53 102 -72 27 -19 54 -35 59 -35 5 0
14 -6 20 -14 13 -15 244 -146 259 -146 4 0 23 -11 42 -25 19 -14 42 -25 51
-25 10 0 30 -10 46 -23 15 -13 48 -31 73 -42 25 -10 52 -24 60 -31 8 -6 32
-17 52 -23 20 -7 47 -20 60 -30 13 -9 43 -26 68 -36 81 -35 391 -195 500 -259
25 -14 52 -29 60 -33 8 -3 44 -24 80 -46 195 -120 364 -244 474 -349 28 -26
58 -51 68 -54 10 -3 18 -12 18 -20 0 -8 4 -14 9 -14 5 0 31 -20 57 -44 26 -25
51 -43 56 -40 4 3 5 -2 2 -10 -4 -10 -1 -16 9 -16 27 0 27 28 0 35 -15 3 -23
11 -20 19 3 8 -1 25 -8 40 -15 29 -6 41 25 31 11 -4 20 -15 20 -26 0 -12 7
-19 19 -19 12 0 21 -11 28 -32 5 -18 15 -32 22 -30 7 1 15 -7 18 -18 3 -11 9
-20 14 -20 5 0 9 -7 9 -15 0 -22 68 -85 85 -79 12 5 15 -4 16 -42 0 -27 3 -43
6 -36 2 6 10 12 16 12 13 0 37 -45 37 -67 0 -7 5 -13 10 -13 6 0 10 -9 10 -20
0 -12 5 -17 13 -14 8 3 13 -6 15 -28 2 -32 27 -62 42 -53 4 3 11 -20 15 -50 5
-45 10 -55 25 -55 26 0 30 -10 34 -77 2 -47 6 -58 20 -58 10 0 22 -8 27 -18 6
-9 18 -17 29 -17 14 0 20 -10 25 -49 5 -36 12 -50 25 -54 15 -4 20 -16 22 -53
2 -41 6 -49 24 -52 17 -2 23 -13 30 -55 8 -43 13 -52 34 -57 17 -4 26 -15 31
-36 6 -32 38 -83 52 -84 4 0 7 -18 7 -41 0 -34 3 -40 18 -35 22 7 49 -34 37
-55 -6 -8 -4 -10 4 -5 14 9 51 -21 51 -41 0 -7 3 -12 8 -12 21 4 33 -3 41 -23
5 -15 21 -25 52 -32 33 -8 44 -16 44 -30 0 -15 7 -20 30 -21 113 -4 115 -5
115 -24 0 -13 -9 -21 -27 -24 -58 -10 -85 -6 -124 19 -30 19 -44 22 -54 14 -9
-8 -14 -6 -18 10 -5 21 -27 28 -27 8 0 -14 49 -80 68 -92 8 -4 24 -18 36 -30
37 -37 100 -81 136 -95 19 -8 40 -20 46 -27 6 -7 51 -27 101 -44 82 -27 103
-30 216 -30 200 0 408 57 652 177 72 35 155 79 185 98 30 19 62 38 70 42 8 4
38 22 65 40 236 157 512 387 709 592 39 40 78 81 87 90 19 20 204 238 225 266
8 11 42 56 74 100 32 44 67 91 78 105 10 14 44 69 76 122 31 54 61 100 66 103
6 4 10 13 10 22 0 9 6 24 14 32 8 9 39 66 69 126 108 215 135 278 182 435 13
41 28 86 34 100 19 45 59 213 80 330 41 242 46 301 46 610 0 253 -3 317 -17
375 -9 39 -22 117 -28 175 -6 58 -18 134 -26 170 -8 36 -26 112 -39 170 -35
157 -81 324 -121 440 -9 25 -25 77 -36 115 -11 39 -26 84 -33 100 -15 33 -48
134 -70 210 -8 28 -23 70 -34 95 -11 25 -27 70 -36 100 -9 30 -22 61 -27 68
-6 7 -21 41 -33 75 -41 114 -67 182 -81 214 -8 17 -14 35 -14 39 0 4 -9 26
-19 48 -24 51 -81 198 -81 210 0 5 -13 34 -29 65 -15 31 -32 67 -36 81 -4 14
-18 48 -31 75 -28 61 -84 190 -115 265 -12 30 -28 62 -34 70 -7 8 -20 38 -29
67 -10 28 -25 62 -35 75 -9 13 -25 43 -36 68 -10 25 -25 52 -32 61 -7 8 -13
19 -13 24 0 15 -83 189 -107 225 -12 19 -23 44 -23 56 0 12 -7 27 -15 34 -8 7
-24 33 -35 58 -12 25 -31 60 -43 76 -13 17 -29 46 -37 64 -7 19 -18 39 -24 46
-13 14 -34 49 -54 91 -21 43 -52 74 -67 69 -7 -3 -16 -1 -20 5 -3 6 -1 11 4
11 6 0 11 14 11 30 0 25 -6 33 -30 44 -17 7 -28 15 -25 18 8 8 -13 58 -25 58
-6 0 -10 -27 -11 -62 l-1 -63 -13 60 c-7 33 -10 66 -8 73 3 6 0 12 -6 12 -6 0
-10 -3 -10 -7 6 -39 -21 -44 -37 -8 -7 14 -9 38 -5 57 4 18 4 44 0 58 -7 26
-11 21 -13 -20 -2 -39 -30 -31 -36 10 -3 22 -11 35 -20 36 -36 2 -40 5 -40 27
0 38 -12 67 -26 67 -8 0 -20 15 -28 33 -7 19 -25 45 -40 60 -14 14 -26 33 -26
42 0 8 -11 20 -24 25 -17 6 -26 18 -28 37 -2 22 -9 29 -31 31 -26 3 -28 6 -22
35 3 18 3 28 -2 22 -16 -19 -43 -13 -49 11 -3 13 -10 24 -14 24 -5 0 -12 9
-15 20 -3 11 -17 23 -31 26 -16 4 -27 16 -32 37 -6 23 -16 33 -39 39 -27 7
-31 12 -30 43 1 41 0 43 -38 48 -24 3 -29 8 -27 25 3 17 -2 22 -20 22 -38 0
-68 12 -68 26 0 19 -28 32 -79 37 -26 2 -47 11 -52 20 -6 10 -31 19 -67 23
-31 5 -60 9 -64 10 -5 1 -12 2 -18 3 -5 0 -10 8 -10 16 0 13 -22 15 -135 15
-113 0 -135 -2 -135 -15z m1394 -1057 c3 -7 7 -32 9 -55 4 -32 2 -43 -8 -43
-8 0 -16 8 -18 18 -14 48 -17 74 -12 82 9 14 25 12 29 -2z m62 -125 c3 -16 7
-33 9 -40 2 -6 -3 -19 -10 -30 -9 -11 -14 -13 -15 -5 0 7 -4 10 -10 7 -11 -7
-14 77 -3 88 13 14 23 6 29 -20z m56 -118 c10 -40 0 -77 -21 -73 -9 2 -16 9
-15 16 1 6 2 30 3 53 1 47 20 49 33 4z m56 -155 c-2 -14 -9 -25 -18 -25 -19 0
-26 61 -9 82 11 13 14 12 21 -8 5 -13 8 -35 6 -49z m57 -90 c5 -29 3 -44 -8
-54 -13 -13 -15 -11 -21 16 -10 50 -7 78 8 78 9 0 17 -15 21 -40z m83 -148
c12 -11 22 -30 21 -43 -1 -44 8 -64 29 -67 18 -3 22 -10 22 -42 0 -50 8 -70
26 -63 16 6 23 -9 32 -73 4 -27 13 -49 19 -49 28 0 40 -30 42 -107 1 -11 9
-18 20 -18 19 0 26 -15 37 -86 3 -21 11 -44 18 -49 20 -15 66 -119 66 -147 0
-14 11 -42 25 -62 14 -21 23 -42 20 -47 -4 -5 -2 -9 3 -9 5 0 12 -21 15 -46 4
-43 21 -69 38 -58 11 7 19 -24 19 -76 0 -62 7 -79 29 -73 21 5 31 -20 31 -77
0 -55 10 -82 25 -70 10 8 18 -3 34 -51 11 -34 18 -66 15 -71 -3 -5 0 -16 7
-24 21 -26 59 -115 59 -140 0 -27 24 -80 47 -103 9 -9 13 -26 10 -45 -5 -35 8
-71 37 -104 14 -16 21 -40 23 -83 4 -67 16 -99 37 -99 19 0 26 -22 27 -93 2
-78 10 -112 28 -112 20 0 29 -40 31 -138 3 -107 2 -107 -14 -107 -28 0 -30 11
-35 177 -1 46 -3 51 -21 46 -16 -4 -20 0 -20 20 0 52 -12 87 -31 87 -14 0 -19
11 -24 48 -12 95 -16 110 -29 115 -16 6 -36 79 -37 139 -1 24 -3 35 -6 26 -13
-51 -43 17 -43 99 0 60 -1 63 -24 63 -17 0 -25 6 -25 18 -1 58 -15 162 -22
162 -5 0 -9 -10 -10 -22 -1 -26 -13 13 -31 102 -7 30 -14 47 -16 38 -2 -10 -7
-18 -11 -18 -10 0 -34 87 -26 99 3 6 -2 11 -13 11 -20 0 -32 38 -32 107 0 27
-4 32 -27 35 -22 2 -28 8 -29 28 -3 113 -3 110 -29 110 -23 0 -25 3 -25 50 0
53 -22 120 -39 120 -6 0 -13 23 -17 51 -4 28 -12 56 -19 62 -6 7 -15 25 -19
40 -3 15 -10 27 -15 27 -5 0 -12 18 -16 40 -4 22 -11 40 -16 40 -5 0 -9 8 -9
19 0 20 -28 93 -39 101 -13 10 -30 49 -36 84 -6 27 -12 36 -27 36 -16 0 -19 5
-14 25 5 18 1 28 -14 37 -12 8 -20 24 -20 41 0 16 -7 30 -15 34 -9 3 -15 13
-14 22 3 30 -3 76 -8 64 -2 -7 -10 -13 -18 -13 -16 0 -27 54 -19 98 l7 34 16
-26 c9 -14 27 -34 39 -44z m-806 -1915 c24 -25 55 -36 112 -43 35 -4 56 -11
56 -19 0 -14 51 -35 85 -35 13 0 30 -11 39 -24 9 -14 27 -26 43 -28 17 -2 32
-12 38 -25 9 -22 21 -27 53 -26 7 1 18 -10 24 -23 6 -14 22 -27 34 -30 13 -3
30 -16 38 -29 9 -13 25 -26 36 -30 11 -3 20 -13 20 -21 0 -8 11 -20 25 -26 14
-6 25 -15 25 -20 0 -4 11 -18 25 -30 14 -12 25 -30 25 -40 0 -10 6 -18 14 -18
7 0 16 -14 20 -30 3 -17 14 -33 23 -37 24 -9 42 -34 43 -56 0 -10 11 -29 25
-43 14 -14 28 -42 31 -65 4 -23 15 -46 27 -54 16 -11 22 -28 25 -74 3 -47 10
-65 28 -82 l24 -22 0 -330 0 -330 -25 -23 c-21 -19 -25 -32 -25 -77 0 -47 -4
-57 -24 -70 -18 -12 -26 -29 -31 -66 -5 -35 -12 -50 -24 -54 -10 -2 -21 -17
-24 -33 -3 -16 -22 -46 -42 -67 -20 -21 -33 -42 -30 -47 4 -6 -1 -13 -10 -16
-9 -4 -22 -18 -29 -33 -20 -37 -173 -191 -191 -191 -8 0 -22 -11 -31 -25 -9
-15 -26 -25 -39 -25 -13 0 -29 -10 -38 -24 -9 -13 -28 -27 -43 -30 -16 -4 -38
-18 -51 -32 -14 -15 -33 -24 -53 -24 -20 0 -39 -9 -54 -25 -16 -17 -34 -25
-56 -25 -52 0 -108 -21 -113 -41 -5 -18 -21 -19 -331 -19 -318 0 -327 1 -347
21 -25 25 -69 39 -122 39 -30 0 -40 4 -44 20 -4 13 -17 21 -42 26 -59 10 -71
15 -71 29 0 8 -18 19 -39 26 -24 7 -43 21 -50 35 -7 17 -19 24 -39 24 -21 0
-32 7 -40 25 -6 14 -18 25 -27 25 -19 0 -195 173 -195 192 0 7 -9 21 -20 31
-11 9 -20 23 -20 32 0 8 -9 19 -21 26 -11 6 -29 30 -40 54 -10 23 -25 48 -34
55 -8 6 -17 28 -21 49 -9 50 -23 74 -40 67 -9 -3 -14 1 -15 12 -4 78 -8 100
-17 124 -8 19 -16 26 -27 22 -13 -5 -15 33 -15 340 0 332 1 346 19 346 14 0
22 12 30 46 6 25 9 49 6 54 -9 15 6 60 21 60 17 0 30 25 39 73 4 21 15 42 24
47 10 5 23 28 30 51 8 26 20 43 32 46 11 3 22 16 25 28 3 13 14 31 25 41 10 9
19 23 19 30 0 8 11 21 25 30 14 9 25 21 25 26 0 12 78 88 90 88 5 0 11 8 15
19 3 10 18 21 34 24 17 4 31 14 33 25 4 12 18 23 38 27 19 4 34 15 37 26 3 12
20 23 44 29 21 6 43 20 49 30 6 12 21 20 35 20 36 0 75 18 75 34 0 10 18 16
66 22 42 4 73 13 84 24 10 10 24 20 31 23 8 3 157 6 331 6 252 1 319 -2 330
-12z m1751 -541 c17 -51 17 -84 1 -203 -3 -26 -10 -43 -18 -43 -16 0 -26 72
-26 187 0 126 15 147 43 59z m60 -391 c-3 -219 -9 -273 -29 -253 -4 4 -11 90
-16 190 -8 140 -7 190 2 213 l12 30 16 -35 c12 -26 16 -63 15 -145z m46 -321
c20 -137 10 -506 -16 -574 -15 -39 -22 80 -22 363 0 256 2 307 13 298 8 -7 19
-45 25 -87z m-58 -521 c8 -147 10 -193 11 -288 1 -111 -10 -161 -35 -152 -21
7 -7 467 14 467 5 0 10 -12 10 -27z m-5928 -242 c15 -15 -2 -31 -34 -31 -36 0
-64 14 -72 35 -5 12 2 14 45 10 28 -2 55 -8 61 -14z m92 -61 c0 -19 -47 -25
-75 -10 -31 17 -14 31 33 28 29 -2 42 -8 42 -18z m104 -41 c42 -15 39 -25 -11
-33 -30 -5 -45 -3 -56 8 -31 31 8 45 67 25z m121 -64 c0 -11 -11 -15 -40 -15
-29 0 -40 4 -40 15 0 11 11 15 40 15 29 0 40 -4 40 -15z m5571 -67 c3 -134
-11 -198 -41 -198 -13 0 -13 155 1 203 14 52 39 49 40 -5z m-5441 8 c0 -22
-15 -27 -49 -15 -43 15 -39 29 9 29 28 0 40 -4 40 -14z m106 -44 c22 -1 33 -8
37 -21 3 -15 18 -20 65 -26 52 -6 61 -10 64 -28 3 -19 10 -22 55 -25 45 -3 52
-6 55 -25 2 -16 13 -24 41 -31 20 -5 37 -15 37 -22 0 -7 20 -20 44 -29 29 -11
43 -22 39 -30 -3 -10 11 -16 56 -21 55 -6 61 -9 61 -30 0 -17 4 -22 15 -18 8
4 15 2 15 -4 0 -5 10 -7 23 -5 17 3 25 -2 34 -26 8 -23 18 -31 35 -31 13 0 31
-9 41 -20 9 -11 24 -20 32 -20 9 0 18 -12 21 -29 5 -23 12 -31 33 -33 16 -2
30 -12 36 -26 6 -13 23 -26 40 -30 20 -6 31 -15 33 -30 3 -17 10 -22 31 -22
29 0 60 -25 47 -37 -3 -4 7 -12 24 -19 16 -7 30 -19 30 -27 0 -8 11 -19 25
-25 15 -7 25 -20 25 -32 0 -15 7 -20 25 -20 24 0 27 -3 29 -32 1 -7 10 -15 21
-18 16 -5 20 -15 21 -48 1 -23 -2 -42 -7 -42 -5 0 -12 0 -16 0 -5 1 -7 11 -5
24 2 17 -2 23 -15 23 -36 0 -41 3 -46 33 -5 21 -12 30 -27 30 -13 0 -22 9 -26
25 -3 14 -12 25 -19 25 -7 0 -20 11 -29 25 -9 14 -25 25 -36 25 -11 0 -20 4
-20 9 0 15 -77 91 -92 91 -20 0 -37 20 -31 36 3 8 -1 14 -9 14 -23 0 -79 31
-85 46 -3 8 -14 14 -24 14 -10 0 -25 10 -34 23 -8 13 -32 29 -52 36 -21 8 -44
22 -51 32 -7 11 -20 19 -28 19 -8 0 -33 12 -57 28 -23 15 -51 30 -62 33 -11 3
-19 11 -17 17 1 7 -4 13 -10 14 -7 0 -18 2 -24 2 -26 3 -62 36 -58 53 4 16 -1
18 -44 15 -36 -3 -52 1 -63 14 -11 13 -11 18 -1 21 6 3 12 11 12 18 0 10 -8
11 -38 3 -49 -12 -96 4 -89 31 4 16 -3 19 -50 24 -39 4 -59 12 -69 25 -7 11
-32 27 -54 36 -22 9 -40 17 -40 18 0 3 69 3 126 0z m5271 -151 c-3 -15 -3 -41
2 -57 10 -39 -5 -113 -28 -138 -10 -12 -22 -37 -26 -56 -11 -59 -16 -70 -30
-70 -15 0 -20 -13 -30 -77 -4 -24 -10 -43 -14 -43 -8 0 -17 -17 -46 -80 -9
-19 -29 -57 -45 -85 -16 -27 -36 -67 -45 -87 -9 -21 -25 -40 -35 -43 -11 -4
-20 -20 -24 -44 -4 -26 -14 -44 -31 -55 -16 -10 -25 -26 -25 -41 0 -17 -7 -28
-23 -34 -15 -6 -27 -23 -35 -49 -8 -25 -20 -43 -32 -47 -11 -4 -20 -15 -20
-25 0 -11 -11 -27 -25 -36 -14 -9 -25 -22 -25 -28 0 -6 -12 -23 -27 -37 -16
-14 -35 -35 -43 -48 -8 -13 -23 -31 -32 -40 -10 -8 -18 -23 -18 -32 0 -9 -9
-19 -20 -22 -11 -3 -24 -17 -30 -31 -5 -14 -17 -26 -25 -26 -9 0 -21 -13 -26
-29 -6 -17 -19 -31 -30 -33 -11 -2 -19 -5 -18 -8 5 -11 -23 -50 -35 -50 -7 0
-18 -11 -24 -25 -6 -14 -19 -25 -27 -25 -9 0 -20 -11 -25 -25 -6 -15 -17 -25
-30 -25 -12 0 -22 -9 -26 -24 -3 -15 -17 -29 -35 -35 -19 -7 -29 -17 -29 -30
0 -12 -5 -21 -11 -21 -6 0 -33 -22 -59 -49 -26 -27 -57 -52 -69 -56 -11 -3
-21 -12 -21 -19 0 -8 -14 -19 -30 -26 -17 -7 -39 -23 -49 -36 -10 -13 -29 -28
-43 -34 -13 -6 -28 -21 -33 -33 -6 -12 -18 -23 -27 -25 -9 -2 -33 -19 -53 -38
-20 -19 -42 -34 -49 -34 -7 0 -21 -9 -31 -20 -10 -11 -23 -20 -30 -20 -7 0
-20 -9 -30 -20 -10 -11 -25 -20 -33 -20 -8 0 -30 -13 -49 -30 -18 -16 -42 -30
-52 -30 -10 0 -26 -11 -34 -24 -11 -17 -29 -26 -61 -30 -30 -5 -46 -12 -46
-21 0 -21 -33 -35 -84 -35 -35 0 -44 -3 -40 -14 8 -20 -31 -43 -84 -52 -34 -5
-47 -3 -63 12 -19 17 -19 19 -3 31 10 7 39 13 65 13 38 0 48 4 52 19 3 13 17
22 41 26 21 4 36 13 36 21 0 8 7 14 15 14 8 0 15 5 15 10 0 6 16 10 34 10 28
0 37 5 48 27 10 21 24 29 56 36 31 6 42 13 42 26 0 20 26 31 72 31 20 0 27 6
30 22 2 14 13 24 31 29 16 4 43 19 62 33 19 14 38 26 44 26 5 0 18 10 28 23
10 13 26 26 36 30 9 3 17 13 17 21 0 9 14 19 33 24 22 6 33 15 35 29 2 15 12
23 30 25 19 2 28 10 30 25 2 16 12 23 43 28 24 4 39 12 39 21 0 8 13 23 30 32
16 9 30 23 30 30 0 8 13 19 29 25 18 6 32 21 36 34 3 13 17 28 30 33 14 5 25
14 25 20 0 15 26 41 34 33 6 -6 10 12 7 35 -1 6 5 12 14 12 9 0 31 15 50 34
18 19 36 31 39 28 3 -3 6 2 6 12 0 9 11 22 25 28 14 6 25 17 25 25 0 8 13 22
30 31 16 9 32 27 35 40 4 17 11 22 25 17 15 -5 19 0 22 27 3 29 6 33 31 31 15
-1 27 2 27 8 0 5 -5 9 -12 9 -6 0 -4 7 5 18 10 10 17 22 17 26 0 5 14 24 30
43 17 18 30 40 30 48 0 8 9 15 20 15 19 0 26 19 21 58 -1 6 5 12 14 12 8 0 15
6 15 14 0 8 7 16 15 20 8 3 15 17 15 32 0 17 6 28 18 31 11 2 25 20 32 39 8
18 22 36 32 40 11 3 21 19 25 36 4 18 14 33 25 35 11 3 18 14 18 28 0 35 21
85 35 85 16 0 25 22 25 61 0 22 6 32 24 38 24 10 36 44 36 102 0 24 4 29 25
29 21 0 25 5 25 28 0 40 11 72 24 72 20 0 39 59 32 101 -4 24 -2 39 4 39 5 0
10 -4 10 -10 0 -5 7 -10 15 -10 14 0 16 7 19 95 1 21 32 75 42 75 4 0 4 -13 1
-29z m-4027 -732 c-9 -16 -14 -18 -26 -8 -21 17 -17 29 11 29 23 0 24 -2 15
-21z m0 -50 c0 -6 -4 -7 -10 -4 -5 3 -10 11 -10 16 0 6 5 7 10 4 6 -3 10 -11
10 -16z m60 -4 c0 -29 -7 -31 -32 -8 -25 22 -23 33 7 33 20 0 25 -5 25 -25z
m-10 -45 c0 -5 -4 -10 -10 -10 -5 0 -10 5 -10 10 0 6 5 10 10 10 6 0 10 -4 10
-10z m1845 -1504 c18 -13 17 -15 -20 -30 -28 -12 -59 -15 -113 -12 -80 5 -87
8 -79 30 10 25 181 35 212 12z m-235 -56 c58 -37 -284 -59 -353 -23 l-32 17
25 7 c37 11 343 10 360 -1z"/>
<path d="M12710 24501 c-140 -4 -263 -10 -272 -15 -28 -13 -21 -26 12 -26 17
0 30 -4 30 -10 0 -11 -24 -13 -68 -4 -20 4 -32 13 -34 26 -3 19 -4 19 -28 -2
-20 -17 -36 -21 -90 -20 -36 1 -126 -2 -200 -5 -74 -4 -162 -8 -195 -8 -33 -1
-52 -3 -42 -5 31 -7 18 -20 -20 -19 -21 0 -157 -3 -303 -6 -146 -4 -357 -9
-470 -12 -151 -3 -219 -8 -260 -20 -30 -10 -68 -19 -85 -22 -16 -3 -37 -14
-46 -24 -9 -10 -19 -16 -23 -12 -3 3 -6 -1 -6 -11 0 -21 -30 -55 -30 -34 -1 7
-10 2 -22 -12 -11 -14 -27 -24 -34 -22 -8 2 -14 -2 -14 -8 0 -5 7 -10 16 -10
14 0 14 -2 0 -15 -8 -8 -24 -15 -36 -15 -17 0 -20 4 -15 20 7 22 -13 26 -50
10 l-20 -9 20 -1 c34 -3 -78 -30 -120 -29 -51 1 -377 -11 -430 -15 -74 -7
-180 -38 -197 -58 -10 -11 -18 -16 -18 -12 0 5 -9 -4 -20 -21 -11 -16 -17 -38
-14 -47 4 -13 -3 -18 -33 -24 -21 -4 -42 -10 -48 -14 -12 -9 -101 -17 -277
-26 -105 -6 -128 -9 -131 -23 -4 -14 -5 -13 -6 2 -1 19 -12 22 -26 8 -6 -5
-42 -19 -81 -30 -78 -23 -116 -50 -120 -84 -1 -12 -3 -26 -3 -32 -1 -5 -6 -3
-11 5 -8 12 -10 11 -10 -7 0 -12 -5 -25 -10 -28 -6 -4 -8 -10 -6 -14 3 -4 -11
-8 -31 -8 -32 -1 -42 -7 -58 -38 -3 -6 -7 -5 -11 3 -3 6 -12 12 -20 12 -8 0
-14 -6 -14 -12 0 -10 -38 -14 -148 -16 -172 -3 -199 -7 -207 -31 -3 -10 -17
-24 -31 -31 -29 -16 -56 -72 -48 -98 4 -10 3 -13 -3 -6 -5 7 -16 6 -33 -3 -14
-7 -20 -13 -15 -13 6 -1 -7 -9 -28 -20 -28 -14 -45 -16 -68 -10 -17 5 -67 7
-110 5 -76 -4 -116 -17 -132 -42 -4 -6 -20 -14 -36 -18 -23 -5 -32 -16 -46
-52 -23 -59 -46 -87 -57 -70 -6 9 -13 6 -26 -11 -16 -20 -30 -24 -93 -28 -132
-8 -177 -15 -190 -30 -6 -8 -15 -14 -20 -14 -15 0 -49 -34 -49 -48 0 -7 -7
-15 -15 -19 -9 -3 -15 -13 -14 -22 1 -9 -2 -30 -6 -47 -5 -25 -14 -34 -43 -42
-21 -6 -53 -11 -72 -10 -19 0 -70 -4 -113 -10 -80 -10 -117 -29 -117 -62 0 -9
-5 -21 -10 -26 -10 -10 -21 -44 -22 -71 -1 -7 -5 -13 -9 -13 -4 0 -10 -9 -14
-20 -5 -15 -13 -19 -36 -16 -16 2 -50 -1 -77 -6 -26 -6 -55 -10 -64 -10 -9 0
-19 -6 -22 -14 -3 -8 -14 -14 -25 -14 -11 0 -23 -4 -26 -10 -3 -5 -13 -10 -21
-10 -9 0 -29 -13 -45 -29 -24 -24 -29 -38 -29 -75 0 -31 -4 -46 -13 -46 -7 0
-20 -9 -30 -20 -14 -17 -29 -20 -95 -20 -44 0 -92 -5 -108 -10 -28 -10 -64
-58 -64 -85 0 -7 -7 -18 -16 -26 -10 -8 -13 -21 -9 -36 3 -15 1 -23 -7 -23 -7
0 -19 -9 -26 -21 -11 -17 -20 -20 -48 -15 -46 9 -105 -8 -134 -39 -12 -13 -27
-22 -32 -19 -15 9 -38 -17 -38 -43 0 -13 -6 -26 -14 -29 -8 -3 -12 -13 -8 -26
3 -14 1 -19 -8 -16 -7 2 -23 -6 -34 -17 -12 -12 -42 -25 -66 -29 -25 -4 -75
-21 -112 -38 -60 -28 -68 -35 -68 -59 0 -15 -4 -31 -10 -34 -6 -3 -10 -19 -10
-35 0 -38 -45 -86 -65 -70 -10 8 -25 8 -57 -1 -24 -7 -49 -13 -56 -15 -32 -6
-66 -58 -76 -116 -3 -15 -7 -32 -11 -38 -9 -15 -75 -41 -113 -45 -21 -2 -46
-16 -69 -39 -34 -32 -37 -41 -43 -108 -4 -40 -8 -65 -9 -55 -1 21 -19 23 -27
2 -3 -8 -26 -17 -52 -21 -26 -3 -53 -11 -61 -17 -7 -6 -23 -16 -34 -22 -12 -6
-24 -19 -26 -30 -2 -11 -8 -23 -15 -27 -6 -4 -16 -31 -21 -60 -10 -49 -13 -53
-38 -51 -15 1 -27 -2 -27 -8 0 -5 -9 -9 -19 -9 -11 0 -22 -4 -25 -9 -3 -4 -18
-11 -33 -14 -36 -7 -68 -59 -69 -111 -1 -30 -8 -45 -28 -62 -14 -13 -26 -27
-26 -31 0 -5 -17 -8 -37 -9 -83 -1 -113 -28 -147 -132 -9 -27 -25 -56 -34 -64
-17 -15 -63 -31 -92 -32 -8 -1 -21 -13 -28 -29 -7 -15 -17 -27 -22 -27 -9 0
-32 -54 -35 -83 -4 -33 -41 -72 -71 -75 -16 -2 -33 -8 -38 -13 -6 -5 -18 -9
-27 -9 -19 0 -64 -64 -55 -79 3 -5 -1 -11 -9 -15 -10 -3 -15 -19 -15 -43 0
-21 -7 -48 -15 -59 -8 -12 -11 -24 -8 -28 3 -3 -8 -6 -25 -6 -16 0 -33 6 -36
13 -3 9 -8 8 -18 -4 -7 -9 -23 -19 -36 -23 -14 -5 -25 -18 -29 -36 -3 -16 -11
-31 -19 -34 -10 -4 -14 -23 -14 -63 -1 -57 -16 -93 -38 -93 -7 0 -19 -11 -28
-25 -12 -18 -22 -24 -36 -20 -14 5 -22 -1 -33 -29 -8 -19 -19 -37 -23 -40 -5
-3 -15 -26 -22 -51 -7 -26 -18 -45 -27 -45 -8 0 -22 -14 -31 -30 -9 -17 -22
-28 -28 -26 -6 2 -9 -11 -8 -35 1 -21 -2 -36 -7 -34 -5 3 -11 -6 -15 -20 -3
-14 -14 -30 -23 -35 -15 -9 -14 -9 2 -10 9 0 17 -7 17 -16 0 -16 -12 -16 -75
1 -12 3 -31 -3 -48 -17 -24 -20 -28 -33 -34 -90 -3 -38 -9 -68 -12 -68 -4 0
-15 -14 -24 -30 -16 -26 -73 -62 -102 -64 -30 -2 -52 -45 -69 -131 -9 -51 -26
-102 -37 -118 -11 -15 -24 -51 -28 -79 -9 -54 -26 -72 -71 -73 -64 -2 -78 -6
-84 -22 -28 -84 -36 -114 -36 -151 0 -23 -4 -51 -10 -62 -5 -11 -14 -29 -20
-39 -6 -14 -6 -21 3 -24 7 -3 2 -6 -11 -6 -12 -1 -25 -8 -28 -16 -4 -9 -13
-14 -22 -13 -8 2 -17 -2 -19 -9 -2 -6 6 -13 18 -15 19 -3 16 -7 -21 -31 -33
-22 -45 -25 -51 -15 -7 10 -9 10 -10 -2 -1 -8 -1 -18 0 -22 0 -5 -3 -8 -9 -8
-5 0 -10 -11 -10 -25 0 -14 -4 -25 -9 -25 -15 0 -43 -111 -38 -149 3 -20 0
-55 -5 -78 -9 -36 -14 -43 -34 -43 -15 0 -24 -6 -24 -15 0 -20 -16 -19 -24 1
-8 20 -19 11 -23 -19 -2 -12 -12 -29 -22 -38 -10 -8 -22 -31 -26 -50 -4 -19
-14 -42 -22 -51 -8 -9 -12 -22 -8 -27 3 -6 1 -11 -4 -11 -7 0 -11 -36 -12 -97
0 -74 -5 -108 -19 -138 -13 -28 -18 -32 -14 -14 3 15 1 30 -5 33 -11 7 -44
-48 -34 -58 4 -3 -3 -6 -14 -6 -16 0 -20 -5 -16 -18 3 -14 -4 -22 -24 -31 -17
-7 -46 -36 -68 -69 l-38 -57 -4 -123 c-1 -68 -5 -127 -7 -130 -6 -12 -19 -67
-18 -74 1 -5 -5 -8 -14 -8 -8 0 -13 -4 -10 -9 3 -5 -1 -14 -9 -21 -11 -9 -15
-9 -15 -1 0 16 -38 -9 -44 -29 -3 -12 -4 -11 -5 3 -2 31 -15 17 -46 -46 -29
-60 -30 -67 -31 -214 -1 -127 -4 -155 -18 -169 -9 -9 -14 -24 -11 -34 3 -11 0
-20 -10 -24 -19 -7 -20 -36 -1 -36 11 0 13 -9 10 -37 -8 -57 -12 -63 -34 -63
-12 0 -20 -7 -20 -17 0 -14 -2 -15 -9 -4 -5 8 -16 11 -31 6 -12 -4 -19 -9 -16
-13 3 -3 -4 -10 -17 -16 -12 -7 -23 -17 -23 -24 -1 -7 -3 -14 -4 -17 -1 -3 -3
-9 -4 -13 0 -5 -9 -16 -18 -26 -10 -10 -19 -26 -20 -37 -4 -49 -6 -88 -12
-281 -3 -114 -9 -214 -12 -223 -3 -8 -15 -15 -25 -15 -25 0 -33 -37 -20 -86 6
-22 11 -47 11 -57 0 -17 -1 -17 -16 -3 -18 18 -34 21 -34 5 0 -5 5 -7 11 -3
12 7 12 6 -10 -38 -16 -31 -31 -37 -31 -12 0 8 -5 12 -11 9 -6 -4 -8 -13 -5
-21 3 -8 1 -14 -4 -14 -6 0 -10 -9 -10 -20 0 -10 -9 -28 -21 -39 -18 -16 -22
-35 -26 -108 -2 -48 -7 -95 -10 -103 -3 -8 -5 -107 -3 -219 1 -156 -1 -201
-10 -196 -9 6 -11 -10 -8 -63 2 -39 1 -66 -3 -61 -6 11 -30 -196 -27 -236 1
-11 1 -42 0 -70 -2 -36 -5 -46 -12 -35 -5 8 -10 26 -10 39 0 20 -2 21 -15 11
-11 -9 -12 -17 -5 -30 7 -13 7 -21 -1 -25 -6 -4 -8 -18 -4 -32 4 -17 0 -32
-10 -44 -10 -10 -14 -22 -11 -28 4 -5 -3 -16 -14 -24 -12 -8 -20 -27 -21 -48
-2 -19 -7 -39 -12 -46 -4 -6 -10 -36 -11 -66 -2 -30 -10 -65 -19 -78 -9 -15
-14 -41 -12 -69 1 -25 -2 -72 -9 -105 -6 -33 -11 -138 -11 -232 0 -95 -3 -173
-6 -173 -3 0 -5 -197 -5 -437 0 -241 0 -557 -2 -701 -1 -145 1 -269 5 -275 10
-17 11 -65 2 -161 -5 -50 -4 -109 1 -137 5 -27 12 -72 15 -101 4 -29 9 -57 13
-62 3 -6 6 -29 5 -51 -1 -22 3 -45 8 -51 5 -7 9 -16 8 -20 -4 -20 14 -94 24
-94 5 0 3 -7 -4 -17 -9 -10 -10 -18 -4 -20 6 -2 9 -21 7 -43 -2 -22 0 -40 5
-40 5 0 8 -15 7 -33 -1 -18 8 -53 23 -82 21 -43 24 -60 21 -118 -3 -42 0 -77
8 -92 6 -13 17 -47 23 -76 9 -41 9 -54 -1 -61 -10 -6 -9 -8 3 -8 9 0 19 -7 23
-15 3 -9 0 -15 -9 -15 -19 0 -19 0 1 -40 13 -25 15 -49 11 -102 -5 -56 -3 -74
10 -86 12 -13 14 -31 8 -106 -6 -88 5 -178 22 -183 4 -2 7 -28 7 -58 -1 -30 3
-55 8 -55 6 0 8 -10 5 -22 -9 -37 7 -93 26 -92 18 2 24 -22 7 -28 -6 -2 -5
-18 1 -43 5 -22 11 -46 13 -54 1 -7 10 -17 19 -23 13 -7 15 -13 7 -29 -8 -15
-7 -21 4 -25 9 -4 13 -16 11 -34 -2 -17 2 -34 11 -40 8 -7 14 -23 14 -37 0
-13 3 -22 8 -20 4 3 7 -13 6 -36 0 -22 6 -53 13 -68 8 -15 14 -48 15 -73 0
-33 5 -46 15 -46 12 0 14 -13 12 -64 -2 -35 1 -69 7 -77 17 -22 23 -45 14 -59
-4 -7 -3 -27 2 -44 5 -17 10 -37 11 -43 0 -7 4 -13 9 -13 5 0 7 -4 3 -9 -3 -5
-1 -12 5 -16 5 -3 10 0 11 7 0 7 8 -7 17 -32 12 -31 25 -46 42 -51 22 -6 23
-7 4 -8 -24 -1 -45 -52 -25 -59 6 -2 11 -10 11 -17 0 -8 8 -19 19 -24 12 -7
17 -18 14 -34 -3 -13 2 -30 10 -39 17 -16 27 -56 34 -133 5 -47 27 -90 42 -80
4 2 8 -17 9 -43 2 -73 8 -104 22 -112 9 -6 9 -9 -1 -13 -11 -4 -11 -6 1 -7 22
-1 52 -47 55 -83 4 -48 4 -49 14 -43 12 8 23 -27 33 -101 1 -7 7 -13 15 -13 7
0 13 -5 13 -11 0 -5 -4 -8 -9 -5 -5 4 -4 -5 2 -19 7 -14 15 -25 20 -25 4 0 7
-5 7 -11 0 -5 -4 -8 -8 -5 -5 3 -4 -10 2 -29 6 -19 14 -35 18 -35 5 0 8 -10 8
-22 1 -46 46 -161 66 -168 10 -4 20 -12 20 -19 1 -6 2 -17 3 -23 1 -9 4 -9 11
2 5 8 12 11 16 7 4 -3 1 -14 -7 -24 -12 -15 -12 -16 5 -10 17 7 18 4 12 -33
-4 -29 -3 -39 6 -38 7 2 13 -9 13 -25 1 -18 10 -36 25 -47 20 -15 22 -21 12
-33 -9 -10 -10 -17 -2 -22 5 -3 10 -19 10 -34 0 -15 11 -41 25 -57 14 -16 28
-40 31 -54 11 -55 73 -180 88 -180 6 0 18 -20 25 -45 7 -25 16 -45 20 -45 8 0
31 -73 31 -99 0 -11 7 -26 15 -34 8 -8 24 -33 36 -56 11 -22 28 -41 36 -41 9
0 13 -6 10 -15 -4 -8 -2 -17 3 -20 5 -3 14 -22 21 -43 6 -20 22 -51 35 -69 13
-17 24 -36 24 -42 0 -20 44 -101 55 -101 11 0 40 -63 40 -89 0 -8 6 -16 13
-19 6 -2 12 -10 12 -18 0 -8 4 -14 8 -14 4 0 14 -16 21 -35 7 -19 18 -35 25
-35 6 0 18 -16 25 -35 7 -19 17 -35 22 -35 6 0 8 -4 5 -9 -3 -5 1 -14 9 -21 8
-7 15 -18 15 -24 0 -7 13 -30 30 -52 16 -21 30 -46 30 -55 0 -9 11 -24 25 -33
14 -9 25 -23 25 -32 0 -8 6 -17 14 -20 7 -3 22 -22 32 -42 11 -20 29 -47 41
-61 12 -13 19 -30 16 -37 -3 -8 0 -14 6 -14 6 0 11 -7 11 -14 0 -8 11 -27 25
-42 23 -25 29 -38 26 -57 0 -4 4 -7 10 -7 13 0 33 -20 42 -43 3 -9 13 -17 21
-17 8 0 16 -14 20 -34 4 -19 10 -36 14 -38 16 -7 62 -70 56 -79 -3 -5 3 -9 13
-9 12 0 24 -15 36 -43 10 -24 40 -67 67 -94 28 -28 50 -58 50 -66 0 -8 6 -17
14 -20 8 -3 20 -17 28 -30 24 -45 93 -142 105 -150 7 -4 13 -15 13 -22 0 -8 7
-15 16 -15 8 0 20 -14 25 -30 7 -19 18 -30 30 -30 10 0 19 -7 19 -15 0 -18 26
-61 53 -87 9 -10 17 -23 17 -29 0 -6 12 -23 27 -38 41 -39 103 -109 103 -116
0 -11 99 -119 379 -411 69 -72 133 -140 142 -150 9 -11 38 -40 65 -67 27 -26
54 -52 59 -57 49 -52 377 -370 381 -370 2 0 41 -36 85 -80 44 -44 82 -80 84
-80 2 0 24 -19 48 -42 25 -24 68 -61 96 -83 28 -22 51 -43 51 -47 0 -5 4 -8
10 -8 5 0 21 -11 36 -24 68 -60 173 -146 204 -166 13 -8 34 -25 47 -37 13 -13
26 -23 29 -23 3 0 17 -13 32 -29 15 -16 45 -38 67 -49 22 -11 65 -41 95 -67
30 -25 64 -53 75 -61 82 -61 115 -84 120 -84 4 0 31 -20 59 -45 29 -25 57 -45
63 -45 5 0 28 -16 50 -35 23 -19 46 -35 51 -35 5 0 17 -10 25 -23 8 -13 46
-40 84 -61 99 -54 155 -89 239 -151 40 -30 76 -55 78 -55 2 0 28 -16 58 -35
29 -19 62 -38 73 -42 11 -3 34 -16 50 -28 17 -13 40 -26 53 -30 12 -3 22 -10
22 -15 0 -10 159 -110 175 -110 6 0 40 -16 75 -35 36 -19 85 -44 109 -56 24
-12 54 -33 67 -46 13 -13 28 -23 33 -23 6 0 27 -11 47 -25 20 -14 45 -25 54
-25 10 0 29 -9 43 -20 14 -11 40 -23 58 -27 17 -3 58 -19 91 -35 32 -15 61
-28 65 -28 3 0 20 -10 37 -22 29 -21 57 -36 192 -101 27 -13 74 -30 103 -37
29 -7 79 -25 110 -41 31 -16 64 -29 74 -29 9 0 17 -4 17 -8 0 -21 217 -112
345 -145 92 -23 191 -60 295 -109 93 -44 181 -76 270 -96 25 -6 92 -22 150
-36 58 -14 121 -28 140 -32 19 -3 40 -9 45 -13 6 -4 28 -13 50 -20 46 -14 79
-28 116 -47 14 -7 48 -18 75 -24 27 -6 65 -17 84 -25 19 -7 109 -25 200 -39
239 -38 427 -76 570 -116 36 -11 105 -26 155 -35 49 -9 94 -20 100 -24 5 -5
39 -12 75 -16 36 -3 90 -10 120 -16 54 -9 125 -15 470 -44 96 -9 186 -17 200
-19 410 -69 1773 -83 2395 -26 55 5 109 12 120 14 11 2 58 7 105 10 47 3 126
10 175 16 50 5 126 11 170 14 204 12 606 55 621 67 5 5 53 15 105 24 52 9 103
20 114 25 18 8 48 15 205 49 25 5 74 16 110 25 94 21 267 49 325 51 49 3 220
39 260 55 11 5 40 13 65 19 83 19 141 37 135 43 -3 3 19 9 50 13 30 3 53 10
50 15 -11 18 221 76 258 64 14 -4 17 -3 12 6 -6 10 0 12 24 7 18 -4 30 -3 27
2 -3 4 24 11 61 14 37 4 69 10 72 14 10 13 62 34 71 28 5 -3 10 -2 12 2 4 11
114 63 132 63 8 0 18 5 21 10 9 14 59 34 123 49 28 7 54 17 57 21 3 5 38 14
78 20 87 14 169 44 302 109 144 71 191 90 270 111 93 25 190 68 371 165 33 18
78 38 100 45 21 7 57 20 79 30 22 10 60 26 85 36 25 11 94 49 155 87 60 37
121 71 135 74 14 3 46 16 72 29 26 13 52 24 58 24 18 0 137 74 218 135 15 11
45 27 67 34 22 7 47 19 55 26 8 7 26 16 40 20 14 4 32 13 40 20 8 7 33 22 55
34 22 12 67 42 100 66 33 24 66 44 73 45 6 0 12 4 12 9 0 5 26 22 58 37 73 35
157 88 190 120 15 14 44 34 64 45 20 10 40 24 43 30 4 6 27 19 51 29 24 11 44
24 44 30 0 5 6 10 14 10 8 0 41 20 73 45 32 25 94 70 139 100 44 30 87 61 94
70 7 8 17 15 22 15 6 0 53 35 106 78 91 73 132 103 171 127 36 22 89 62 153
115 36 30 89 71 117 91 28 20 72 54 99 77 26 22 74 63 108 91 133 109 155 177
99 306 -27 64 -53 94 -74 88 -14 -3 -20 2 -24 26 -4 21 -29 54 -72 95 -36 36
-65 67 -65 71 0 4 -11 16 -25 27 -14 11 -25 24 -25 29 0 5 -17 26 -38 47 -20
20 -50 54 -65 75 -16 20 -32 35 -37 32 -9 -6 -52 49 -44 57 2 3 -16 22 -41 42
-25 21 -45 44 -45 52 0 8 -10 19 -22 24 -32 13 -58 35 -58 49 0 11 -106 121
-117 121 -8 0 -42 42 -59 74 -9 17 -27 41 -40 55 -14 14 -65 69 -114 121 -49
52 -90 101 -90 108 0 6 -7 12 -15 12 -9 0 -18 6 -21 14 -3 9 -15 13 -29 10
-18 -3 -22 0 -18 14 2 10 -3 24 -11 31 -9 8 -16 20 -16 27 0 8 -6 14 -14 14
-8 0 -25 14 -37 31 -32 45 -65 79 -77 79 -5 0 -15 13 -20 30 -6 16 -21 35 -34
41 -25 12 -125 128 -121 141 2 4 -4 8 -12 8 -8 0 -15 5 -15 10 0 6 -6 10 -14
10 -8 0 -17 9 -21 19 -3 11 -15 23 -25 26 -10 3 -22 15 -25 26 -4 10 -15 24
-26 29 -10 6 -19 16 -19 22 0 11 -47 71 -81 103 -20 19 -60 60 -125 128 -16
18 -33 40 -37 49 -3 10 -12 18 -19 18 -7 0 -31 21 -53 47 -22 25 -55 61 -74
79 -26 24 -32 37 -28 55 8 33 -6 53 -31 45 -29 -10 -83 -86 -77 -107 4 -13 1
-16 -12 -13 -13 4 -40 -15 -86 -60 -37 -36 -67 -70 -67 -75 0 -6 -5 -11 -11
-11 -6 0 -39 -29 -74 -65 -36 -36 -69 -65 -75 -65 -5 0 -10 -7 -10 -15 0 -8
-13 -21 -29 -29 -16 -9 -31 -24 -34 -35 -2 -11 -15 -21 -28 -23 -16 -2 -25
-11 -27 -24 -2 -15 -12 -24 -33 -28 -17 -3 -29 -12 -29 -21 0 -9 -13 -21 -30
-26 -16 -6 -30 -17 -30 -25 0 -7 -16 -20 -35 -28 -19 -8 -35 -22 -35 -30 0 -9
-5 -16 -10 -16 -10 0 -40 -26 -110 -94 -14 -13 -35 -27 -46 -30 -12 -4 -24
-15 -27 -25 -2 -11 -17 -21 -37 -24 -20 -4 -34 -14 -37 -26 -3 -11 -16 -22
-29 -25 -13 -4 -28 -15 -34 -26 -6 -11 -24 -27 -40 -35 -17 -9 -30 -22 -30
-30 0 -8 -17 -19 -40 -25 -28 -8 -40 -16 -38 -27 2 -9 -4 -17 -13 -18 -39 -6
-57 -17 -62 -35 -3 -13 -17 -22 -36 -26 -17 -4 -33 -14 -36 -25 -3 -10 -22
-23 -41 -29 -19 -6 -38 -20 -44 -29 -5 -10 -23 -21 -39 -24 -17 -4 -32 -14
-36 -26 -3 -10 -17 -22 -30 -25 -13 -3 -36 -17 -50 -30 -15 -14 -40 -28 -57
-31 -17 -4 -32 -15 -35 -25 -3 -10 -22 -22 -43 -29 -23 -7 -41 -19 -45 -31 -4
-13 -15 -20 -31 -20 -33 0 -64 -17 -64 -35 0 -9 -15 -17 -40 -21 -24 -4 -40
-12 -40 -20 0 -15 -26 -29 -71 -38 -15 -3 -29 -14 -32 -26 -4 -14 -13 -20 -35
-20 -29 0 -37 -5 -70 -45 -7 -8 -28 -15 -46 -15 -25 0 -35 -6 -44 -25 -9 -20
-19 -25 -50 -25 -32 0 -41 -5 -50 -25 -9 -20 -19 -25 -46 -25 -27 0 -39 -7
-56 -29 -15 -22 -30 -31 -58 -33 -27 -2 -40 -9 -47 -25 -7 -16 -21 -23 -57
-28 -30 -4 -48 -12 -48 -20 0 -20 -19 -29 -70 -35 -34 -4 -47 -10 -55 -27 -8
-18 -18 -23 -50 -23 -33 0 -46 -6 -67 -30 -21 -24 -34 -30 -65 -30 -30 0 -40
-5 -48 -22 -8 -19 -20 -24 -65 -28 -45 -4 -57 -9 -65 -27 -8 -19 -18 -23 -58
-23 -38 0 -53 -5 -71 -25 -15 -16 -34 -25 -54 -25 -42 0 -83 -17 -99 -40 -11
-15 -26 -20 -64 -20 -40 0 -54 -5 -73 -25 -19 -20 -33 -25 -72 -25 -52 0 -94
-20 -94 -46 0 -8 -3 -13 -7 -13 -5 1 -34 1 -66 0 -47 -1 -62 -5 -80 -25 -18
-19 -35 -25 -89 -29 -64 -4 -104 -20 -93 -37 7 -12 -33 -20 -103 -20 -53 0
-66 -4 -85 -24 -19 -20 -33 -24 -104 -27 -66 -3 -86 -8 -105 -25 -18 -17 -40
-23 -100 -26 -51 -3 -79 -1 -82 6 -3 7 -5 6 -5 -1 -1 -7 -13 -13 -27 -13 -14
0 -33 -9 -42 -19 -15 -17 -33 -20 -134 -24 -109 -3 -118 -5 -136 -28 -19 -22
-28 -24 -163 -30 -79 -4 -157 -8 -174 -8 -18 -1 -25 -4 -18 -9 7 -4 -20 -7
-60 -6 -60 2 -65 1 -27 -5 39 -6 42 -8 20 -14 -40 -10 -53 -11 -83 -2 -35 9
-179 -4 -171 -16 6 -10 31 -10 -641 -18 l-500 -7 363 -2 c233 -1 362 -6 362
-12 0 -14 -987 -14 -992 1 -2 5 -44 12 -93 15 -50 3 -155 9 -235 15 -80 6
-185 13 -235 15 -49 3 -108 10 -130 15 -94 24 -193 38 -274 40 -47 1 -95 7
-106 14 -38 23 -90 34 -184 41 -71 5 -101 11 -121 26 -20 14 -51 21 -123 26
-76 6 -99 11 -110 26 -10 14 -33 19 -103 25 -73 6 -95 12 -112 29 -19 19 -33
22 -102 22 -72 0 -80 2 -80 19 0 25 -21 33 -110 40 -55 4 -75 10 -75 20 0 19
-30 29 -87 30 -34 1 -54 7 -68 21 -27 27 -62 40 -107 40 -25 0 -42 7 -59 25
-18 19 -33 25 -68 25 -52 0 -76 8 -76 24 0 19 -45 36 -95 36 -31 0 -45 4 -45
13 0 19 -44 37 -89 37 -31 0 -40 5 -49 25 -10 21 -18 25 -56 25 -41 0 -76 18
-76 40 0 4 -25 11 -56 15 -38 4 -57 12 -61 23 -10 25 -24 32 -68 32 -32 0 -42
5 -50 23 -7 14 -20 23 -40 25 -58 5 -75 12 -75 31 0 20 -26 31 -73 31 -20 0
-30 6 -34 20 -3 11 -15 22 -27 24 -66 14 -76 18 -76 31 0 19 -31 35 -68 35
-21 0 -32 7 -40 25 -9 19 -19 25 -42 25 -21 0 -34 8 -46 25 -11 17 -25 25 -44
25 -38 0 -60 9 -60 26 0 11 -40 41 -47 36 -2 -1 -14 -2 -28 -2 -18 0 -28 7
-35 25 -7 18 -17 25 -37 25 -32 0 -47 9 -55 31 -4 9 -22 19 -42 23 -26 5 -36
12 -38 29 -2 16 -10 22 -28 23 -76 2 -80 3 -77 25 1 16 -6 24 -28 32 -16 6
-36 18 -42 27 -7 10 -29 21 -48 24 -25 5 -39 14 -45 32 -6 14 -18 24 -29 24
-11 0 -32 12 -48 26 -15 14 -39 28 -54 31 -15 3 -31 15 -38 29 -6 13 -17 24
-26 24 -8 0 -25 11 -37 25 -12 14 -35 27 -53 31 -18 3 -35 14 -40 27 -6 12
-20 23 -33 25 -13 2 -27 14 -32 27 -6 15 -20 25 -42 29 -21 4 -37 14 -43 28
-6 12 -20 25 -33 28 -12 3 -28 16 -35 30 -7 14 -21 27 -32 29 -11 2 -26 12
-33 22 -7 11 -19 19 -25 19 -7 0 -27 16 -46 35 -18 19 -39 35 -46 35 -8 0 -17
9 -20 20 -3 11 -17 23 -29 26 -13 3 -28 16 -35 30 -6 14 -19 24 -31 24 -12 0
-25 10 -32 25 -6 14 -19 25 -29 25 -10 0 -26 11 -35 25 -9 14 -22 25 -30 25
-7 0 -21 12 -31 26 -9 14 -27 30 -41 35 -13 5 -26 18 -29 29 -3 11 -15 23 -27
26 -12 3 -26 15 -31 27 -6 12 -20 26 -32 32 -12 5 -24 18 -27 28 -2 10 -14 21
-25 24 -11 3 -23 14 -27 25 -3 10 -17 23 -30 28 -13 5 -24 16 -24 24 0 9 -13
22 -30 31 -17 9 -30 23 -30 31 0 9 -9 18 -19 21 -11 3 -21 13 -24 24 -3 10
-17 23 -31 29 -14 5 -26 14 -26 20 0 7 -63 75 -140 153 -206 208 -220 223
-220 234 0 6 -11 18 -25 27 -14 9 -25 23 -25 31 0 7 -9 17 -20 20 -11 4 -20
15 -20 27 0 12 -8 22 -20 25 -12 3 -27 21 -35 39 -8 19 -21 34 -29 34 -9 0
-16 5 -16 11 0 6 -27 42 -60 79 -33 37 -60 72 -60 77 0 5 -11 19 -25 31 -14
12 -25 27 -25 33 0 7 -9 21 -21 33 -62 63 -99 109 -99 121 0 8 -9 19 -19 25
-11 5 -22 23 -26 40 -4 16 -13 30 -21 30 -8 0 -22 16 -31 35 -9 19 -22 35 -28
35 -13 0 -35 42 -35 65 0 7 -9 16 -19 20 -11 3 -21 16 -23 28 -2 12 -13 26
-25 32 -14 6 -27 25 -35 52 -7 25 -20 45 -30 49 -10 3 -18 14 -18 24 0 10 -10
27 -22 37 -27 22 -48 56 -48 78 0 8 -9 19 -20 25 -11 6 -20 18 -20 28 -1 9
-14 33 -30 52 -17 19 -30 43 -30 53 0 11 -11 30 -25 43 -14 13 -28 37 -32 54
-4 21 -14 35 -29 41 -16 5 -24 17 -24 32 0 13 -11 37 -25 53 -14 16 -25 38
-25 50 0 11 -11 31 -25 44 -14 13 -28 38 -31 57 -3 18 -14 38 -24 43 -10 5
-23 30 -29 55 -6 25 -18 48 -25 51 -8 3 -19 25 -26 50 -7 25 -21 49 -30 54
-10 5 -21 26 -24 45 -4 20 -15 44 -24 53 -10 10 -24 37 -32 61 -8 24 -22 51
-31 60 -8 9 -22 37 -29 63 -7 26 -18 49 -26 52 -7 3 -17 24 -20 47 -4 22 -17
53 -30 67 -13 13 -24 35 -24 48 0 32 -18 76 -29 70 -11 -7 -28 36 -35 89 -3
25 -13 45 -26 54 -12 8 -20 24 -20 42 0 34 -16 79 -34 93 -8 6 -16 34 -20 61
-3 28 -16 63 -28 80 -12 16 -25 51 -29 78 -5 27 -16 58 -26 69 -10 11 -25 54
-33 96 -12 60 -18 76 -31 74 -13 -2 -17 10 -22 65 -4 49 -10 70 -24 82 -13 10
-24 39 -31 80 -6 35 -18 71 -26 80 -8 9 -17 43 -21 76 -4 33 -15 78 -25 100
-10 22 -23 80 -30 129 -9 61 -18 94 -31 107 -13 13 -19 33 -19 65 0 56 -28
222 -41 247 -12 22 -39 223 -39 291 0 30 -6 56 -15 66 -23 25 -35 118 -35 267
0 108 -3 134 -16 148 -9 9 -20 33 -25 53 -13 54 -11 1806 2 1862 6 25 16 52
23 60 10 11 15 65 18 191 4 158 7 181 26 214 16 25 22 53 22 92 0 68 28 264
40 278 5 6 9 20 9 30 1 40 33 211 47 255 23 69 33 111 38 168 3 29 15 74 27
100 13 26 25 73 27 107 3 36 10 64 19 70 8 6 19 42 25 80 5 39 14 77 19 85 27
44 39 85 39 134 0 42 4 58 18 68 28 19 42 52 42 96 0 28 7 47 25 66 19 21 25
38 25 74 0 37 5 50 25 67 19 15 27 34 33 83 7 47 14 67 30 78 16 11 22 26 22
54 0 31 5 43 24 55 19 13 24 27 28 72 4 43 10 59 28 73 17 13 24 29 26 59 2
44 17 71 40 71 14 0 18 12 14 39 -4 31 12 62 36 72 21 7 25 14 20 32 -9 36 4
67 30 73 21 5 24 12 24 50 0 37 4 45 28 56 17 9 26 21 25 33 -5 37 8 66 32 75
19 7 24 17 27 52 2 33 8 45 25 52 14 7 23 22 27 46 3 21 16 45 31 58 14 12 25
33 25 47 0 14 8 29 20 35 10 6 22 26 26 45 3 19 16 40 29 49 14 9 25 29 29 54
4 28 12 41 26 45 12 3 22 17 26 35 4 17 15 34 29 40 15 7 24 22 29 50 4 28 12
43 26 47 11 3 20 14 20 23 0 9 14 37 30 62 16 25 30 51 30 58 0 7 11 17 24 21
17 7 25 20 30 50 4 25 12 41 20 41 8 0 21 15 30 34 9 18 25 36 36 39 13 3 20
13 20 31 0 14 8 30 18 35 10 5 24 28 31 49 8 24 23 44 37 51 13 6 24 19 24 30
0 13 8 21 23 23 18 2 23 11 28 45 3 24 7 44 10 45 2 2 13 8 24 14 11 6 21 21
23 33 2 13 11 21 23 21 13 0 24 10 30 29 6 16 19 31 30 34 11 3 22 17 25 35 3
17 19 43 35 58 16 15 29 33 29 40 0 7 9 16 20 19 11 3 23 18 26 31 4 14 17 30
30 34 14 6 24 18 24 29 0 12 9 21 25 25 15 4 25 13 25 25 0 10 7 24 15 31 8 7
15 19 15 26 0 8 7 14 15 14 8 0 15 4 15 10 0 9 34 50 85 100 14 14 25 31 25
37 0 6 9 13 20 16 11 3 24 16 29 30 5 13 19 27 30 30 11 3 25 17 31 31 5 14
13 26 17 25 22 -4 31 3 37 26 4 16 13 25 26 25 13 0 22 9 26 25 4 15 16 28 30
31 13 3 24 15 26 27 2 13 13 23 28 27 16 4 26 14 28 28 2 14 10 22 23 22 11 0
24 11 31 25 6 14 22 28 34 31 13 4 24 15 26 27 2 14 11 23 25 25 14 2 25 12
29 27 3 13 14 25 25 28 10 3 23 17 29 31 5 14 16 26 25 26 8 0 20 11 26 24 6
13 20 27 30 29 10 3 23 17 29 31 5 14 13 26 17 25 21 -4 32 3 38 22 4 11 18
24 32 30 14 5 27 18 30 28 3 11 18 25 34 31 16 7 29 19 29 27 0 8 14 19 30 25
17 5 35 18 40 28 6 10 20 20 32 22 13 2 29 15 36 31 8 15 21 27 32 27 12 0 22
9 26 24 3 15 14 26 27 28 12 2 26 13 32 26 5 12 24 27 41 32 18 6 34 20 37 30
3 12 17 22 34 26 16 3 33 15 38 27 6 12 20 23 31 25 12 2 26 14 32 28 8 16 20
24 37 24 18 0 29 8 37 26 7 15 23 27 39 31 15 3 31 15 37 28 6 13 23 25 41 28
17 4 31 13 31 20 0 8 20 22 45 31 25 10 45 24 45 32 0 8 14 20 30 26 17 5 35
18 40 28 6 10 26 21 48 25 25 4 41 13 47 28 6 11 24 25 42 29 18 5 37 17 43
28 6 11 19 20 30 20 31 0 50 11 50 31 0 17 15 23 90 32 8 1 16 12 18 25 2 16
10 22 27 22 15 0 31 10 41 25 12 19 25 25 50 25 27 0 37 5 45 24 12 25 35 36
77 36 15 0 26 9 32 25 6 16 17 25 32 25 41 0 68 12 68 29 0 13 13 20 48 27 37
7 48 13 50 31 3 18 11 22 45 25 32 2 44 8 52 26 8 17 18 22 47 22 29 0 41 6
58 29 16 24 29 31 63 33 32 2 44 8 52 26 7 16 18 22 42 22 42 0 63 9 63 26 0
17 40 34 80 34 19 0 33 8 44 25 14 21 25 25 61 25 36 0 50 5 67 25 17 19 31
25 64 25 33 0 47 5 62 25 11 14 34 28 53 31 70 11 77 14 82 34 4 17 13 20 57
20 56 0 90 13 90 34 0 18 22 26 73 26 46 0 60 7 69 31 4 11 24 18 65 22 71 8
93 15 93 32 0 12 62 25 120 25 17 0 33 8 42 21 12 18 27 23 91 28 64 5 80 10
93 29 13 18 24 22 74 22 62 0 110 15 110 35 0 8 30 14 87 19 73 5 92 10 113
30 22 21 36 25 118 28 83 3 96 6 112 26 16 19 27 22 94 22 95 0 174 16 178 37
2 12 18 15 73 15 66 -1 199 13 238 24 9 3 17 11 17 18 0 10 38 13 158 15 170
2 291 16 307 34 14 17 25 17 800 20 759 2 818 1 853 -20 31 -19 149 -31 318
-34 120 -2 141 -4 151 -20 16 -22 70 -31 206 -34 81 -2 112 -6 125 -18 31 -28
72 -37 168 -37 59 0 94 -4 94 -11 0 -20 70 -39 144 -39 65 0 78 -3 101 -24 22
-20 41 -25 113 -31 71 -6 90 -11 103 -28 13 -16 31 -21 80 -24 90 -6 106 -10
112 -33 5 -18 13 -20 75 -20 63 0 72 -3 89 -24 17 -23 57 -32 149 -36 7 0 14
-9 17 -20 3 -12 14 -20 29 -21 12 -1 28 -2 33 -4 6 -1 27 -3 48 -3 30 -2 39
-7 47 -27 8 -22 16 -25 57 -25 62 0 93 -9 87 -24 -7 -17 39 -36 87 -36 33 0
41 -4 49 -25 8 -22 15 -25 59 -25 41 0 51 -4 65 -25 10 -16 29 -26 53 -30 72
-12 83 -15 83 -29 0 -17 22 -26 66 -26 27 0 37 -5 46 -25 9 -20 18 -25 49 -25
50 0 69 -8 69 -30 0 -22 19 -30 71 -30 33 0 41 -4 49 -25 8 -22 15 -25 59 -25
44 0 50 -3 53 -22 2 -19 13 -25 52 -33 27 -6 52 -17 54 -25 7 -22 23 -30 60
-30 25 0 35 -5 42 -25 6 -16 17 -25 32 -25 43 0 67 -12 70 -34 2 -17 11 -21
50 -24 39 -3 47 -7 52 -28 4 -13 12 -24 19 -25 48 -2 71 -11 88 -33 13 -17 30
-26 49 -26 18 0 29 -6 32 -18 3 -10 23 -22 52 -30 26 -7 45 -16 42 -21 -8 -13
15 -28 55 -35 25 -4 38 -13 42 -26 3 -13 17 -22 37 -26 20 -4 35 -15 40 -29 6
-15 20 -24 43 -28 19 -3 46 -17 60 -31 14 -14 35 -26 47 -26 11 0 20 -7 20
-15 0 -15 48 -45 73 -45 8 0 17 -9 20 -20 3 -13 17 -22 37 -27 20 -3 35 -13
38 -25 2 -10 15 -21 28 -24 13 -4 33 -19 45 -35 12 -18 29 -29 44 -29 13 0 29
-10 39 -25 9 -14 25 -25 36 -25 11 0 24 -9 30 -20 6 -12 22 -25 36 -30 13 -5
24 -16 24 -24 0 -18 30 -36 59 -36 13 0 21 -8 23 -22 2 -17 11 -24 31 -26 19
-2 31 -11 37 -27 5 -14 20 -27 33 -30 14 -4 34 -20 46 -36 12 -16 28 -29 36
-29 8 0 15 -5 15 -11 0 -16 77 -89 94 -89 7 0 21 -11 30 -25 9 -14 25 -25 36
-25 13 0 24 -10 30 -25 5 -13 20 -27 34 -31 14 -3 28 -15 31 -25 4 -10 10 -19
15 -19 5 0 50 -40 100 -90 50 -49 95 -90 100 -90 6 0 10 -5 10 -12 0 -9 136
-148 145 -148 8 0 75 -71 75 -79 0 -6 10 -16 22 -22 26 -14 88 -78 88 -91 0
-4 11 -14 25 -20 14 -6 25 -15 25 -20 0 -5 21 -31 48 -58 26 -27 68 -72 95
-99 26 -27 47 -54 47 -60 0 -6 11 -18 25 -27 14 -9 25 -25 25 -36 0 -11 9 -22
20 -25 11 -3 23 -16 26 -29 3 -13 15 -26 25 -29 10 -4 19 -13 19 -21 0 -8 11
-20 25 -26 14 -6 25 -16 25 -22 0 -6 18 -31 40 -55 22 -24 40 -52 40 -62 0
-10 9 -23 20 -29 11 -6 20 -16 20 -22 0 -5 27 -37 60 -69 33 -33 63 -71 66
-85 3 -13 15 -29 25 -35 11 -5 19 -20 19 -34 0 -15 7 -26 21 -30 11 -4 24 -18
29 -31 5 -13 16 -24 23 -24 16 0 41 -44 42 -73 0 -13 9 -26 23 -32 12 -5 22
-17 22 -27 0 -9 12 -23 27 -30 19 -9 31 -26 39 -53 6 -22 18 -41 26 -43 9 -2
18 -15 21 -30 3 -15 16 -31 29 -37 16 -7 24 -21 28 -47 3 -20 15 -47 28 -60
64 -66 82 -90 82 -117 0 -16 9 -36 24 -48 13 -12 30 -37 37 -56 7 -20 20 -38
30 -40 9 -3 20 -18 24 -35 3 -17 15 -42 26 -56 11 -14 29 -44 40 -68 46 -96
60 -118 75 -118 8 0 13 -4 9 -10 -7 -11 24 -110 35 -110 5 0 14 -17 21 -37 6
-21 38 -88 70 -151 33 -62 59 -127 59 -143 0 -16 4 -29 9 -29 22 0 41 -34 41
-71 0 -33 4 -41 24 -49 16 -6 26 -18 28 -36 l3 -27 493 -1 c390 -1 492 1 492
11 0 7 -7 13 -15 13 -8 0 -15 4 -15 8 0 5 75 12 167 15 235 10 333 9 333 -3 0
-5 8 -10 18 -11 13 0 14 -2 2 -6 -8 -3 -18 -10 -21 -15 -7 -11 -92 -12 -296
-2 -133 6 -153 5 -153 -8 0 -10 -14 -18 -37 -22 -36 -7 -539 -17 -804 -16
l-126 0 -6 -50 c-3 -28 -4 -56 -1 -63 3 -9 163 -11 717 -9 605 3 715 5 735 18
18 12 103 15 495 19 493 5 1292 21 1532 30 77 3 444 10 815 15 371 6 821 15
999 20 178 6 606 15 950 20 344 5 937 16 1316 24 1037 23 1712 36 2410 46 347
5 783 14 970 20 187 6 633 15 990 20 358 6 814 14 1015 20 201 5 635 14 965
20 330 6 751 15 935 20 184 5 529 12 765 16 237 3 700 12 1030 20 330 8 899
19 1265 24 366 5 685 12 710 14 25 3 284 8 575 11 292 4 796 13 1120 21 325 8
862 19 1195 24 752 12 2677 57 2790 65 54 4 494 28 537 29 11 1 19 4 17 7 -6
11 328 25 711 29 138 2 228 6 201 9 -27 3 -51 11 -53 18 -3 9 75 13 334 14
186 2 363 4 393 6 56 4 110 6 145 5 96 -1 272 4 270 8 -2 3 218 7 488 9 456 4
697 7 740 10 9 0 17 5 17 10 0 5 -46 12 -102 15 -149 8 -681 21 -761 18 -38
-2 -74 1 -80 6 -10 7 -695 25 -947 24 -49 0 -51 1 -20 8 26 6 15 7 -45 6 -83
-1 -582 10 -925 20 -107 3 -212 9 -232 14 -22 4 -36 4 -32 -1 7 -12 -52 -12
-74 0 -9 4 -210 11 -446 15 -236 3 -434 10 -440 14 -6 4 -58 7 -116 8 -134 1
-569 12 -815 20 -104 4 -219 6 -254 5 -35 -1 -67 2 -70 7 -4 6 -185 12 -444
16 -267 4 -446 10 -458 16 -13 7 -19 7 -19 0 0 -5 -15 -9 -32 -9 l-33 1 30 8
c20 6 3 8 -55 7 -102 -2 -696 12 -972 22 -108 4 -211 6 -230 4 -25 -3 -30 -2
-18 6 11 8 -18 11 -110 9 -69 -1 -190 0 -270 1 -80 2 -226 0 -325 -3 -381 -13
-977 -26 -1625 -36 -371 -6 -868 -14 -1105 -20 -236 -5 -605 -12 -820 -15
-214 -3 -511 -10 -660 -15 -148 -6 -605 -14 -1015 -20 -410 -6 -882 -15 -1050
-21 -168 -6 -494 -12 -725 -15 -231 -2 -670 -11 -975 -20 -707 -20 -1987 -24
-1998 -7 -4 7 -27 15 -50 19 -23 4 -42 10 -42 15 0 4 -17 13 -37 20 -21 6 -49
25 -62 41 -14 15 -30 28 -35 28 -5 0 -47 38 -92 85 -46 47 -88 85 -94 85 -11
0 -160 150 -160 161 0 4 -13 12 -30 17 -17 7 -32 20 -35 34 -6 23 -8 23 -178
26 -95 1 -239 5 -322 9 -82 3 -184 7 -225 8 -41 1 -147 5 -235 8 -88 4 -287 9
-442 13 -156 3 -281 9 -279 13 3 4 -3 7 -12 7 -9 0 -235 4 -501 8 -266 4 -505
11 -532 15 -27 5 -83 6 -125 3 -44 -3 -75 -1 -71 4 3 5 -128 11 -306 13 -347
5 -360 5 -572 10 -116 3 -137 6 -95 11 36 5 -7 7 -120 7 -266 1 -765 14 -825
22 -35 5 -52 4 -48 -2 4 -7 -11 -8 -42 -4 -26 4 -70 7 -97 7 -27 0 -47 3 -45
8 3 4 -8 7 -23 7 -15 0 -26 -3 -23 -7 6 -12 -75 -10 -96 2 -10 5 -123 10 -252
10 -328 2 -650 13 -574 21 36 3 -1 6 -95 6 -250 0 -805 12 -940 20 -69 4 -158
6 -197 4 -42 -2 -73 1 -73 7 0 5 -78 10 -192 10 -106 1 -299 4 -428 8 -224 6
-237 8 -284 31 -40 20 -54 23 -68 14 -28 -17 -48 -13 -48 10 0 11 -4 18 -9 15
-5 -3 -7 -15 -4 -26 4 -14 0 -20 -11 -20 -9 0 -16 5 -16 10 0 6 -7 10 -15 10
-8 0 -15 7 -15 16 0 8 5 12 10 9 6 -3 10 -1 10 4 0 6 -12 11 -26 11 -21 0 -24
3 -19 21 5 13 3 19 -3 15 -13 -8 -64 33 -56 45 3 5 -8 12 -24 15 -17 3 -35 16
-42 30 -10 18 -19 22 -37 18 -17 -5 -23 -2 -21 7 2 8 -4 13 -14 13 -10 -1 -20
6 -23 16 -4 12 -23 22 -55 30 -30 7 -50 18 -50 26 0 8 -19 18 -46 25 -31 8
-49 19 -56 35 -7 16 -22 25 -49 29 -41 7 -52 21 -21 27 24 5 -48 38 -82 38
-15 0 -26 6 -26 13 0 8 -18 22 -40 32 -22 10 -40 25 -40 33 0 10 -7 12 -25 8
-14 -4 -25 -2 -25 4 0 5 -11 10 -25 10 -18 0 -25 5 -25 19 0 10 -7 21 -15 25
-8 3 -15 14 -15 24 0 12 -11 24 -30 32 -18 8 -30 20 -30 31 0 14 -7 19 -30 19
-16 0 -30 5 -30 11 0 6 -8 8 -19 4 -11 -3 -22 -2 -25 3 -3 6 4 12 17 16 18 5
19 8 7 16 -10 6 -16 6 -18 0 -6 -16 -52 -12 -52 5 0 8 -4 15 -9 15 -12 0 -117
104 -124 124 -4 9 -15 16 -26 16 -10 0 -21 7 -25 15 -3 8 -15 15 -26 15 -13 0
-20 7 -20 20 0 11 -4 20 -10 20 -5 0 -10 7 -10 15 0 8 5 15 10 15 6 0 10 4 10
9 0 5 -18 8 -39 6 -36 -3 -41 -1 -53 25 -8 19 -21 30 -38 32 -19 2 -26 10 -28
30 -2 19 -10 28 -25 30 -12 2 -23 12 -27 26 -3 13 -7 22 -10 20 -8 -5 -46 34
-53 55 -4 9 -16 17 -27 17 -20 0 -22 7 -23 58 0 17 -3 20 -10 13 -17 -17 -35
-13 -42 9 -3 11 -12 20 -19 20 -8 0 -16 14 -20 30 -4 24 -12 32 -36 36 -21 5
-30 12 -30 25 0 12 -10 23 -25 29 -16 6 -25 17 -25 31 0 12 -8 23 -20 26 -11
3 -20 14 -20 24 0 10 -4 21 -10 24 -14 9 -12 23 4 27 9 2 4 12 -16 33 -17 18
-26 23 -22 13 4 -11 1 -18 -6 -18 -6 0 -10 10 -8 23 1 14 -8 38 -24 60 -25 32
-31 35 -68 30 -37 -5 -40 -4 -40 18 0 13 -3 34 -6 46 -5 18 -10 21 -24 13 -16
-8 -18 -4 -22 30 -2 22 0 47 5 55 10 19 -1 57 -14 49 -6 -3 -8 -13 -5 -21 8
-20 -2 -33 -19 -26 -9 3 -15 18 -15 39 0 26 -4 34 -17 34 -30 1 -53 24 -46 48
3 13 1 22 -6 22 -6 0 -11 -7 -11 -15 0 -8 -4 -15 -10 -15 -5 0 -10 9 -10 19 0
32 -11 51 -30 51 -13 0 -21 13 -30 50 -6 27 -9 54 -5 60 9 14 -23 63 -35 55
-6 -4 -10 9 -11 27 0 27 -2 29 -8 13 -9 -22 5 -59 18 -50 7 4 21 -16 21 -31 0
-2 -16 -4 -35 -4 -24 0 -35 5 -35 14 0 23 -33 78 -63 104 -17 15 -26 31 -22
41 3 10 -6 23 -25 36 -17 11 -30 26 -30 33 0 6 -9 12 -19 12 -16 0 -21 9 -26
43 -5 31 -13 46 -28 52 -13 6 -23 21 -25 36 -2 16 -12 31 -27 37 -14 6 -27 22
-31 36 -3 14 -11 23 -17 20 -7 -2 -21 16 -32 41 -13 29 -26 45 -38 45 -18 0
-28 16 -32 53 -1 12 -3 25 -4 30 0 4 -11 6 -23 6 -17 -1 -19 -2 -5 -6 21 -6
23 -23 2 -23 -9 0 -20 11 -25 25 -6 15 -17 25 -30 25 -11 0 -20 5 -20 10 0 6
7 10 16 10 9 0 14 6 11 13 -2 6 -17 12 -34 12 -16 0 -36 5 -44 11 -8 6 -22 14
-33 18 -11 4 -16 12 -12 21 3 8 0 15 -7 15 -7 0 -21 11 -31 25 -11 14 -29 25
-42 25 -19 0 -24 5 -24 25 0 20 -6 27 -30 32 -16 3 -30 11 -30 18 0 23 -54 75
-77 75 -16 0 -23 6 -23 19 0 19 -19 31 -48 31 -15 0 -15 -2 -2 -10 13 -8 13
-10 -2 -10 -9 0 -23 9 -31 20 -8 11 -17 17 -20 14 -4 -4 -11 5 -17 20 -7 20
-16 27 -33 26 -48 -4 -57 0 -57 25 0 17 -6 25 -17 26 -71 2 -112 21 -83 39 11
7 7 10 -16 15 -16 4 -36 9 -44 12 -8 3 -30 5 -47 4 -37 -3 -41 5 -15 26 15 13
15 14 1 10 -10 -3 -31 7 -50 24 -25 22 -42 29 -74 29 -36 0 -42 3 -52 30 -12
31 -12 31 -72 25 -35 -3 -61 -1 -61 4 0 5 6 11 13 14 9 3 9 8 -3 21 -11 14
-25 17 -64 13 -28 -2 -52 -10 -54 -16 -7 -20 -24 -11 -19 10 3 12 1 32 -4 46
-8 22 -13 24 -53 20 -47 -5 -66 5 -66 35 0 19 -41 35 -60 23 -5 -3 -17 1 -26
9 -8 9 -28 16 -44 16 -22 0 -28 4 -24 15 4 10 0 15 -15 15 -12 0 -21 6 -21 16
0 8 -4 13 -9 10 -5 -3 -11 1 -15 9 -3 10 -19 15 -46 15 -33 0 -42 4 -52 25
-13 28 -32 32 -54 10 -21 -21 -54 -19 -55 3 -1 35 -8 55 -21 63 -22 14 -40 10
-45 -11 -3 -11 -14 -20 -24 -20 -15 0 -19 7 -19 40 0 34 -4 41 -24 46 -14 3
-29 3 -35 0 -6 -4 -18 5 -27 19 -11 17 -29 27 -55 31 -22 4 -39 10 -39 14 0 4
-8 10 -19 13 -10 2 -25 17 -32 32 -11 21 -22 28 -48 30 -35 3 -51 18 -51 49 0
15 -2 16 -15 6 -12 -10 -19 -10 -28 -1 -9 9 -9 14 3 21 13 8 12 10 -3 10 -10
0 -23 12 -29 28 -9 22 -12 24 -15 9 -4 -14 -11 -17 -26 -13 -12 3 -25 6 -29 6
-5 0 -8 9 -8 20 0 14 -7 20 -22 20 -30 0 -44 10 -52 38 -4 13 -15 22 -27 22
-12 0 -19 7 -19 20 0 13 -7 20 -20 20 -13 0 -20 7 -20 18 0 21 -29 52 -48 52
-7 0 -12 11 -12 23 0 32 -28 87 -44 87 -13 0 -25 38 -27 89 -1 17 -3 20 -6 9
-2 -10 -10 -18 -18 -18 -20 0 -28 84 -26 295 1 105 2 208 2 230 0 74 10 125
24 125 18 0 25 23 32 112 4 49 10 78 18 78 11 0 45 66 45 88 0 7 6 12 14 12
15 0 29 27 21 41 -11 17 15 88 35 94 16 5 20 15 20 56 0 43 3 51 24 58 20 8
24 19 30 71 4 38 12 60 19 59 29 -3 37 3 37 29 0 47 11 72 31 72 23 0 43 43
34 71 -4 13 -1 19 8 19 9 0 17 -3 20 -7 2 -5 2 -2 0 6 -4 17 34 54 47 46 6 -3
10 -2 10 4 0 14 -17 23 -24 13 -6 -10 -160 6 -164 18 -2 4 -11 6 -21 3 -10 -2
-25 3 -34 12 -9 9 -22 15 -29 14 -22 -4 -92 13 -115 27 -14 9 -24 10 -28 4 -3
-6 -12 -10 -18 -9 -9 0 -9 2 1 6 6 2 12 8 12 12 0 10 -87 72 -104 75 -8 1 -21
7 -29 14 -15 13 -104 23 -219 26 -38 0 -68 4 -68 8 0 5 -7 8 -15 8 -8 0 -15
-6 -15 -12 0 -10 -2 -10 -8 -1 -5 9 -43 13 -117 13 -126 2 -155 6 -155 26 0 8
-10 14 -22 15 -13 0 -34 2 -48 4 -14 2 -55 7 -92 11 -38 4 -68 10 -68 14 0 12
-63 30 -103 31 -9 0 -25 11 -33 25 -9 13 -22 24 -29 24 -7 0 -18 6 -24 14 -7
8 -27 14 -45 14 -19 0 -43 5 -55 11 -27 15 -100 20 -386 30 -126 4 -231 4
-233 -1 -6 -14 -60 -9 -66 7 -6 17 -47 20 -62 5 -6 -6 -30 -6 -69 0 -33 6
-136 10 -230 10 -197 0 -232 5 -240 31 -8 23 -31 25 -39 4 -4 -12 -27 -15
-114 -15 -152 0 -202 8 -202 31 0 27 -20 23 -21 -3 0 -23 0 -23 -10 -2 -9 17
-19 20 -62 20 -29 -1 -218 2 -422 5 -203 4 -485 3 -625 0z m1058 -48 c-10 -2
-28 -2 -40 0 -13 2 -5 4 17 4 22 1 32 -1 23 -4z m-4138 -468 c0 -8 -7 -15 -15
-15 -8 0 -15 7 -15 15 0 8 7 15 15 15 8 0 15 -7 15 -15z m8180 -2415 c0 -5 -4
-10 -10 -10 -5 0 -10 5 -10 10 0 6 5 10 10 10 6 0 10 -4 10 -10z m2548 -2113
c2 -10 -3 -17 -12 -17 -10 0 -16 9 -16 21 0 24 23 21 28 -4z m2066 -1733 c4
-9 5 -19 2 -21 -6 -6 -46 20 -46 29 0 15 38 8 44 -8z m63 -50 c12 -3 23 -15
25 -28 2 -13 11 -22 26 -24 16 -3 22 -8 18 -18 -3 -9 -1 -12 4 -9 6 3 10 -1
10 -9 0 -9 4 -16 9 -16 16 0 110 -105 130 -143 10 -20 31 -51 45 -69 59 -73
94 -127 101 -156 3 -17 17 -42 31 -57 23 -25 24 -32 24 -156 0 -100 -3 -130
-12 -127 -7 3 -15 15 -16 29 -2 13 -8 29 -13 35 -5 6 -10 32 -10 58 -2 36 -6
46 -16 41 -9 -3 -13 0 -11 7 6 18 -41 131 -58 141 -8 4 -14 21 -14 38 0 19 -9
37 -25 51 -15 13 -28 37 -31 59 -5 28 -12 39 -26 41 -19 3 -45 42 -104 157
-10 19 -26 36 -36 39 -10 2 -18 13 -18 23 0 11 -4 19 -10 19 -5 0 -10 8 -10
18 0 23 -19 42 -41 42 -10 0 -21 5 -24 10 -7 11 18 13 52 4z m6511 -151 c-10
-2 -26 -2 -35 0 -10 3 -2 5 17 5 19 0 27 -2 18 -5z m-6080 -278 c-3 -3 -9 2
-12 12 -6 14 -5 15 5 6 7 -7 10 -15 7 -18z m39 -97 c-3 -8 -6 -5 -6 6 -1 11 2
17 5 13 3 -3 4 -12 1 -19z m20 -65 c-3 -10 -5 -2 -5 17 0 19 2 27 5 18 2 -10
2 -26 0 -35z m10 -80 c-3 -10 -5 -2 -5 17 0 19 2 27 5 18 2 -10 2 -26 0 -35z
m22460 -9 c-3 -3 -12 -4 -19 -1 -8 3 -5 6 6 6 11 1 17 -2 13 -5z m971 -201
c-10 -2 -28 -2 -40 0 -13 2 -5 4 17 4 22 1 32 -1 23 -4z m815 -1 c-6 -4 -156
-6 -332 -6 -235 1 -321 -1 -321 -10 0 -8 -2 -8 -8 1 -4 6 -30 13 -57 16 -28 2
126 4 340 5 215 1 385 -2 378 -6z m-1224 -16 c-8 -8 -292 -15 -312 -7 -9 3 58
8 150 9 92 2 165 1 162 -2z m104 -3 c-18 -2 -48 -2 -65 0 -18 2 -4 4 32 4 36
0 50 -2 33 -4z m115 0 c-16 -2 -40 -2 -55 0 -16 2 -3 4 27 4 30 0 43 -2 28 -4z
m110 0 c-10 -2 -26 -2 -35 0 -10 3 -2 5 17 5 19 0 27 -2 18 -5z m125 0 c-7 -2
-21 -2 -30 0 -10 3 -4 5 12 5 17 0 24 -2 18 -5z m-1573 -12 c0 -5 -19 -9 -42
-10 -24 0 -60 -2 -81 -3 -21 -1 -42 3 -47 8 -5 5 26 10 81 11 49 1 89 -1 89
-6z m280 2 c0 -8 -251 -6 -259 2 -2 3 55 5 127 5 73 0 132 -3 132 -7z m495 1
c-19 -7 -475 -9 -475 -1 0 4 109 7 243 6 133 0 238 -2 232 -5z m-1235 -14 c11
-7 -3 -9 -45 -9 -45 1 -54 3 -35 9 35 11 63 11 80 0z m135 0 c-3 -5 -26 -10
-51 -10 -28 0 -43 4 -39 10 3 6 26 10 51 10 28 0 43 -4 39 -10z m97 -2 c-23
-8 -39 -8 -55 0 -19 9 -13 11 33 10 53 0 54 -1 22 -10z m-364 -5 c-10 -2 -28
-2 -40 0 -13 2 -5 4 17 4 22 1 32 -1 23 -4z m-423 -13 c-71 -3 -341 -6 -600
-6 l-470 0 375 5 c206 4 476 6 600 7 192 1 206 0 95 -6z m233 3 c-15 -2 -42
-2 -60 0 -18 2 -6 4 27 4 33 0 48 -2 33 -4z m100 0 c-10 -2 -28 -2 -40 0 -13
2 -5 4 17 4 22 1 32 -1 23 -4z m-1481 -9 c-3 -3 -12 -4 -19 -1 -8 3 -5 6 6 6
11 1 17 -2 13 -5z m-178 -18 c-2 -3 -204 -8 -449 -12 -270 -4 -450 -10 -457
-16 -9 -7 -22 -7 -40 0 -16 6 -37 13 -48 15 -11 2 110 4 270 6 159 1 291 4
293 6 2 2 101 4 220 4 119 1 214 0 211 -3z m99 -3 c-10 -2 -26 -2 -35 0 -10 3
-2 5 17 5 19 0 27 -2 18 -5z m135 0 c-7 -2 -21 -2 -30 0 -10 3 -4 5 12 5 17 0
24 -2 18 -5z m-1913 -23 c0 -5 -21 -10 -47 -9 -36 0 -43 3 -28 9 28 12 75 12
75 0z m145 0 c4 -6 -15 -10 -49 -10 -30 0 -58 5 -61 10 -4 6 15 10 49 10 30 0
58 -4 61 -10z m130 0 c-3 -5 -26 -10 -51 -10 -24 0 -44 5 -44 10 0 6 23 10 51
10 31 0 48 -4 44 -10z m145 0 c11 -7 -1 -10 -42 -10 -31 0 -60 5 -63 10 -8 13
85 13 105 0z m130 0 c-20 -13 -90 -13 -90 0 0 6 24 10 53 10 37 0 48 -3 37
-10z m97 -1 c-12 -7 -27 -7 -45 0 -25 9 -24 9 18 10 36 0 41 -2 27 -10z m-789
-6 c-10 -2 -26 -2 -35 0 -10 3 -2 5 17 5 19 0 27 -2 18 -5z m-188 -6 c-8 -7
-656 -16 -668 -8 -5 3 144 8 331 9 188 2 340 2 337 -1z m108 -4 c-10 -2 -26
-2 -35 0 -10 3 -2 5 17 5 19 0 27 -2 18 -5z m-1485 -10 c-7 -2 -19 -2 -25 0
-7 3 -2 5 12 5 14 0 19 -2 13 -5z m415 0 c-16 -2 -40 -2 -55 0 -16 2 -3 4 27
4 30 0 43 -2 28 -4z m225 0 c-29 -2 -78 -2 -110 0 -32 2 -8 3 52 3 61 0 87 -1
58 -3z m-823 -19 c0 -2 -19 -4 -42 -4 -26 0 -38 4 -30 8 12 8 72 4 72 -4z
m105 6 c17 -7 15 -9 -12 -9 -18 -1 -33 4 -33 9 0 12 17 12 45 0z m290 0 c16
-7 12 -9 -18 -9 -23 -1 -36 3 -32 9 7 12 23 12 50 0z m-526 -4 c-2 -2 -94 -6
-204 -8 -110 -3 -186 -2 -170 2 32 7 381 13 374 6z m-880 -22 c2 -2 -4 -7 -14
-10 -9 -4 -38 0 -63 9 l-47 15 60 -5 c33 -3 62 -7 64 -9z m344 9 c-62 -2 -164
-2 -225 0 -62 1 -12 3 112 3 124 0 174 -2 113 -3z m-718 -13 c14 -6 3 -9 -40
-9 -42 -1 -56 2 -45 9 18 12 58 12 85 0z m120 0 c-3 -5 -22 -10 -41 -10 -19 0
-34 5 -34 10 0 6 18 10 41 10 24 0 38 -4 34 -10z m120 0 c-8 -13 -55 -13 -75
0 -11 7 -2 10 33 10 30 0 46 -4 42 -10z m-667 -7 c-15 -2 -42 -2 -60 0 -18 2
-6 4 27 4 33 0 48 -2 33 -4z m125 0 c-13 -2 -35 -2 -50 0 -16 2 -5 4 22 4 28
0 40 -2 28 -4z m150 0 c-13 -2 -35 -2 -50 0 -16 2 -5 4 22 4 28 0 40 -2 28 -4z
m-594 -8 c-3 -2 -201 -6 -440 -8 -239 -2 -339 -1 -224 2 296 8 669 12 664 6z
m119 -2 c-16 -2 -40 -2 -55 0 -16 2 -3 4 27 4 30 0 43 -2 28 -4z m-1085 -10
c-7 -2 -19 -2 -25 0 -7 3 -2 5 12 5 14 0 19 -2 13 -5z m-63 -13 c11 -7 7 -10
-17 -10 -18 0 -33 5 -33 10 0 13 30 13 50 0z m125 0 c3 -5 -3 -10 -14 -10 -11
0 -23 5 -26 10 -3 6 3 10 14 10 11 0 23 -4 26 -10z m-626 -4 c-2 -2 -101 -5
-219 -8 -118 -2 -192 -1 -165 3 54 6 391 11 384 5z m109 -3 c-15 -2 -42 -2
-60 0 -18 2 -6 4 27 4 33 0 48 -2 33 -4z m149 0 c-20 -2 -52 -2 -70 0 -17 2 0
4 38 4 39 0 53 -2 32 -4z m111 0 c-10 -2 -28 -2 -40 0 -13 2 -5 4 17 4 22 1
32 -1 23 -4z m-819 -7 c-2 -2 -128 -6 -279 -8 -151 -2 -255 -1 -230 2 52 7
516 13 509 6z m-834 -16 c4 -6 -12 -10 -42 -10 -35 0 -44 3 -33 10 20 13 67
13 75 0z m261 3 c-11 -12 -226 -14 -226 -3 0 6 47 10 117 10 64 0 113 -3 109
-7z m-987 -17 c-2 -2 -182 -6 -399 -8 -217 -3 -316 -2 -220 1 238 8 625 13
619 7z m119 -3 c-15 -2 -42 -2 -60 0 -18 2 -6 4 27 4 33 0 48 -2 33 -4z m145
0 c-18 -2 -48 -2 -65 0 -18 2 -4 4 32 4 36 0 50 -2 33 -4z m135 0 c-15 -2 -42
-2 -60 0 -18 2 -6 4 27 4 33 0 48 -2 33 -4z m115 0 c-13 -2 -33 -2 -45 0 -13
2 -3 4 22 4 25 0 35 -2 23 -4z m-1455 -13 c12 0 22 -4 22 -10 0 -15 -34 -12
-66 6 -27 15 -27 15 -4 10 14 -3 35 -6 48 -6z m116 4 c9 -3 16 -11 16 -16 0
-7 -4 -7 -13 0 -7 6 -30 12 -52 15 l-40 4 37 1 c20 1 43 -1 52 -4z m-1035 -30
c9 -8 -115 -2 -134 6 -12 5 11 6 55 3 41 -3 77 -7 79 -9z m466 6 c-82 -4 -157
-5 -167 -1 -9 3 58 7 150 7 l167 2 -150 -8z m243 3 c-15 -2 -42 -2 -60 0 -18
2 -6 4 27 4 33 0 48 -2 33 -4z m95 0 c-7 -2 -21 -2 -30 0 -10 3 -4 5 12 5 17
0 24 -2 18 -5z m-964 -8 c-3 -2 -102 -5 -219 -6 -118 0 -223 -5 -233 -11 -10
-5 -32 -6 -50 -1 -31 7 -31 8 18 14 59 7 490 11 484 4z m269 -2 c-16 -2 -40
-2 -55 0 -16 2 -3 4 27 4 30 0 43 -2 28 -4z m140 0 c-16 -2 -40 -2 -55 0 -16
2 -3 4 27 4 30 0 43 -2 28 -4z m-1373 -13 c4 -6 -11 -10 -37 -10 -31 0 -39 3
-28 10 20 13 57 13 65 0z m155 0 c0 -5 -22 -10 -50 -10 -27 0 -50 5 -50 10 0
6 23 10 50 10 28 0 50 -4 50 -10z m105 0 c-28 -12 -75 -12 -75 0 0 6 21 10 48
9 35 0 42 -3 27 -9z m145 0 c-18 -11 -65 -11 -100 0 -18 6 -5 8 45 9 49 0 65
-2 55 -9z m-691 -14 c-2 -2 -276 -6 -609 -8 -333 -2 -513 -1 -400 2 247 7
1015 12 1009 6z m99 -3 c-16 -2 -40 -2 -55 0 -16 2 -3 4 27 4 30 0 43 -2 28
-4z m-1353 -13 c14 -7 8 -8 -20 -3 -22 3 -42 7 -44 9 -9 8 45 2 64 -6z m-215
-16 c0 -2 -17 -4 -37 -3 -33 1 -35 2 -13 8 23 7 50 4 50 -5z m135 6 c8 -13
-45 -13 -65 0 -11 7 -6 10 22 10 20 0 40 -4 43 -10z m-495 -8 c0 -4 -16 -6
-35 -4 -19 2 -35 6 -35 8 0 2 16 4 35 4 19 0 35 -4 35 -8z m203 -1 c-34 -3
-92 -3 -130 0 -51 4 -36 6 62 6 90 0 111 -2 68 -6z m-374 -5 c-7 -7 -869 -10
-875 -3 -3 3 193 6 437 6 244 1 441 -1 438 -3z m74 -3 c-13 -2 -33 -2 -45 0
-13 2 -3 4 22 4 25 0 35 -2 23 -4z m-1343 -13 c0 -5 -12 -10 -26 -10 -14 0
-23 4 -19 10 3 6 15 10 26 10 10 0 19 -4 19 -10z m377 3 c-11 -10 -326 -13
-332 -2 -4 5 62 9 166 9 95 0 169 -3 166 -7z m-688 -17 c-10 -9 -988 -21
-1169 -14 -36 1 117 5 340 8 223 3 501 6 619 8 118 1 213 1 210 -2z m99 -3
c-10 -2 -28 -2 -40 0 -13 2 -5 4 17 4 22 1 32 -1 23 -4z m130 0 c-10 -2 -26
-2 -35 0 -10 3 -2 5 17 5 19 0 27 -2 18 -5z m-1474 -11 c2 -4 -12 -6 -32 -4
-56 5 -62 10 -15 11 23 1 44 -3 47 -7z m-329 -12 c14 -6 5 -9 -35 -9 -40 0
-49 3 -35 9 11 5 27 9 35 9 8 0 24 -4 35 -9z m135 0 c11 -7 2 -10 -32 -10 -27
0 -48 5 -48 10 0 13 60 13 80 0z m93 3 c-7 -2 -19 -2 -25 0 -7 3 -2 5 12 5 14
0 19 -2 13 -5z m-336 -10 c-6 -5 -359 -13 -845 -17 -191 -2 -354 -6 -364 -10
-9 -4 -32 -3 -52 2 -24 7 -48 7 -71 1 -34 -10 -83 -4 -71 8 3 3 245 8 538 10
293 3 534 5 535 6 1 1 76 3 168 4 92 0 164 -1 162 -4z m-1572 -23 c4 -6 -12
-10 -39 -10 -25 0 -46 5 -46 10 0 6 18 10 39 10 22 0 43 -4 46 -10z m145 0
c-20 -13 -100 -13 -100 0 0 6 26 10 58 10 40 0 53 -3 42 -10z m-21750 -1729
c0 -11 -4 -23 -10 -26 -6 -4 -10 5 -10 19 0 14 5 26 10 26 6 0 10 -9 10 -19z
m-110 -256 c0 -8 -4 -15 -10 -15 -5 0 -10 7 -10 15 0 8 5 15 10 15 6 0 10 -7
10 -15z m180 -4120 c0 -14 -4 -25 -10 -25 -5 0 -10 11 -10 25 0 14 5 25 10 25
6 0 10 -11 10 -25z m58 -300 c-3 -3 -9 2 -12 12 -6 14 -5 15 5 6 7 -7 10 -15
7 -18z m1052 -2555 c0 -5 -7 -10 -15 -10 -8 0 -15 5 -15 10 0 6 7 10 15 10 8
0 15 -4 15 -10z m260 -660 c0 -11 -7 -20 -15 -20 -8 0 -15 9 -15 20 0 11 7 20
15 20 8 0 15 -9 15 -20z m16837 -502 c-3 -8 -6 -5 -6 6 -1 11 2 17 5 13 3 -3
4 -12 1 -19z m-16419 -124 c33 -9 28 -34 -8 -34 -23 0 -30 4 -30 20 0 22 3 23
38 14z m539 -690 c-3 -3 -12 -4 -19 -1 -8 3 -5 6 6 6 11 1 17 -2 13 -5z
m17613 -1114 c0 -11 -4 -20 -10 -20 -5 0 -10 9 -10 20 0 11 5 20 10 20 6 0 10
-9 10 -20z m-16560 -15 c0 -8 -4 -15 -10 -15 -5 0 -10 7 -10 15 0 8 5 15 10
15 6 0 10 -7 10 -15z m230 -225 c0 -34 -3 -36 -24 -14 -22 22 -20 44 4 44 16
0 20 -7 20 -30z m16133 15 c4 -8 1 -18 -5 -21 -7 -4 -14 -2 -16 4 -2 7 -10 12
-18 12 -8 0 -14 5 -14 10 0 16 47 12 53 -5z m-295 -207 c-6 -18 -28 -21 -28
-4 0 9 7 16 16 16 9 0 14 -5 12 -12z m-15568 -18 c0 -13 -7 -20 -20 -20 -13 0
-20 7 -20 20 0 13 7 20 20 20 13 0 20 -7 20 -20z m15505 -40 c0 -7 -6 -15 -12
-17 -8 -3 -13 4 -13 17 0 13 5 20 13 18 6 -3 12 -11 12 -18z m-6817 -77 c-10
-2 -26 -2 -35 0 -10 3 -2 5 17 5 19 0 27 -2 18 -5z m-8358 -140 c0 -14 -19
-38 -25 -32 -8 8 5 39 16 39 5 0 9 -3 9 -7z m260 -206 c0 -7 -9 -18 -20 -25
-20 -12 -25 -6 -14 22 7 19 34 21 34 3z m13650 -452 c0 -8 -4 -15 -10 -15 -5
0 -10 7 -10 15 0 8 5 15 10 15 6 0 10 -7 10 -15z m-12940 -39 c0 -8 -4 -18
-10 -21 -5 -3 -10 3 -10 14 0 12 5 21 10 21 6 0 10 -6 10 -14z m887 -449 c-2
-7 -9 -12 -15 -11 -7 1 -39 2 -72 3 -41 1 -60 5 -60 14 0 9 20 11 76 9 52 -3
74 -7 71 -15z m11168 3 c-3 -5 -46 -10 -96 -10 -53 0 -89 4 -89 10 0 6 39 10
96 10 61 0 93 -4 89 -10z m-197 -37 c-10 -2 -28 -2 -40 0 -13 2 -5 4 17 4 22
1 32 -1 23 -4z m-238 -115 c-1 -7 -10 -29 -21 -48 l-20 -35 5 34 c4 18 6 40 6
47 0 8 7 14 15 14 8 0 15 -6 15 -12z m-633 -290 c-3 -8 -6 -5 -6 6 -1 11 2 17
5 13 3 -3 4 -12 1 -19z m-7847 -428 c0 -5 -9 -10 -20 -10 -11 0 -20 5 -20 10
0 6 9 10 20 10 11 0 20 -4 20 -10z m6408 -2 c-7 -19 -38 -22 -38 -4 0 10 9 16
21 16 12 0 19 -5 17 -12z m-1319 -254 c8 -7 -13 -25 -25 -20 -8 3 -14 2 -14
-2 0 -5 -79 -9 -175 -10 -152 -3 -175 -1 -175 13 0 13 23 15 165 15 105 0 165
4 165 10 0 9 47 4 59 -6z m-3654 -3 c164 -1 185 -3 185 -17 0 -15 -17 -16
-177 -10 -183 7 -253 13 -253 25 0 3 14 5 30 5 17 -1 113 -2 215 -3z m552 -6
c2 -6 -27 -9 -77 -7 -52 2 -80 0 -80 -7 0 -7 -31 -11 -85 -11 -68 0 -85 3 -85
15 0 11 19 15 88 18 144 6 235 3 239 -8z m2576 8 c39 -5 54 -33 17 -33 -11 0
-20 5 -20 10 0 6 -16 10 -35 10 -19 0 -35 -4 -35 -10 0 -5 -9 -10 -19 -10 -11
0 -23 5 -26 10 -3 6 -42 10 -86 10 -48 0 -79 4 -79 11 0 10 204 12 283 2z
m-2385 -40 c-21 -2 -57 -2 -80 0 -24 2 -7 4 37 4 44 0 63 -2 43 -4z m1975 0
c-29 -2 -77 -2 -105 0 -29 2 -6 3 52 3 58 0 81 -1 53 -3z"/>
<path d="M13938 24473 c7 -3 16 -2 19 1 4 3 -2 6 -13 5 -11 0 -14 -3 -6 -6z"/>
<path d="M17108 23869 c-4 -44 -19 -90 -36 -109 -8 -10 -25 -30 -39 -45 -13
-15 -22 -33 -20 -40 3 -6 -6 -38 -19 -71 -14 -32 -33 -81 -42 -109 -9 -27 -25
-57 -35 -65 -12 -10 -20 -34 -24 -73 -5 -45 -11 -62 -30 -77 -20 -16 -25 -30
-30 -92 -3 -47 -11 -82 -23 -99 -49 -70 -60 -190 -51 -552 2 -64 24 -147 40
-147 14 0 31 -51 31 -91 0 -36 2 -39 19 -30 16 9 21 4 36 -34 18 -43 56 -72
77 -59 11 7 10 10 -22 134 -20 75 -22 100 -17 225 5 131 25 270 47 340 5 16
18 62 29 100 28 102 106 313 151 410 10 22 39 85 65 140 78 167 82 228 20 292
-19 20 -35 40 -35 45 0 12 -34 10 -49 -4 -10 -11 -15 -9 -27 6 -10 15 -14 16
-16 5z"/>
<path d="M18600 22671 c0 -25 15 -34 28 -18 8 9 6 16 -9 25 -16 11 -19 9 -19
-7z"/>
<path d="M16952 22143 c2 -9 13 -18 26 -19 20 -4 21 -2 10 16 -15 24 -41 27
-36 3z"/>
<path d="M17200 21910 c0 -5 5 -10 11 -10 5 0 7 5 4 10 -3 6 -8 10 -11 10 -2
0 -4 -4 -4 -10z"/>
<path d="M21227 20913 c-10 -10 -8 -43 2 -43 5 0 8 11 7 25 0 14 -1 25 -2 25
0 0 -4 -3 -7 -7z"/>
<path d="M19810 20180 c0 -5 5 -10 11 -10 5 0 7 5 4 10 -3 6 -8 10 -11 10 -2
0 -4 -4 -4 -10z"/>
<path d="M21876 19807 c3 -10 9 -15 12 -12 3 3 0 11 -7 18 -10 9 -11 8 -5 -6z"/>
<path d="M20140 19773 c0 -13 5 -23 10 -23 13 0 13 11 0 30 -8 12 -10 11 -10
-7z"/>
<path d="M20260 19589 c0 -5 5 -7 10 -4 6 3 10 8 10 11 0 2 -4 4 -10 4 -5 0
-10 -5 -10 -11z"/>
<path d="M20310 19530 c0 -5 5 -10 10 -10 6 0 10 5 10 10 0 6 -4 10 -10 10 -5
0 -10 -4 -10 -10z"/>
<path d="M20464 19334 c3 -9 6 -21 6 -27 0 -8 3 -8 10 -1 12 12 3 44 -12 44
-6 0 -7 -7 -4 -16z"/>
<path d="M20510 19260 c0 -5 7 -10 16 -10 8 0 12 5 9 10 -3 6 -10 10 -16 10
-5 0 -9 -4 -9 -10z"/>
<path d="M13918 19233 c7 -3 16 -2 19 1 4 3 -2 6 -13 5 -11 0 -14 -3 -6 -6z"/>
<path d="M20570 19199 c0 -5 5 -7 10 -4 6 3 10 8 10 11 0 2 -4 4 -10 4 -5 0
-10 -5 -10 -11z"/>
<path d="M20610 19160 c0 -5 5 -10 10 -10 6 0 10 5 10 10 0 6 -4 10 -10 10 -5
0 -10 -4 -10 -10z"/>
<path d="M30203 19069 c-13 -4 -10 -10 13 -28 16 -13 76 -67 134 -121 58 -54
121 -112 140 -128 19 -17 32 -33 30 -36 -3 -2 -54 43 -115 100 -126 120 -165
151 -165 133 0 -17 8 -25 900 -848 142 -132 274 -254 495 -460 61 -56 124
-110 140 -119 19 -10 55 -16 100 -16 159 -1 1583 25 1880 34 176 6 615 14 975
20 360 5 729 12 820 15 322 10 978 24 1180 25 113 0 457 7 765 15 308 9 756
17 995 20 239 3 599 9 800 15 201 6 673 15 1050 20 377 6 921 17 1210 25 289
8 649 15 800 15 151 0 523 7 825 15 303 8 814 20 1136 25 322 6 768 15 990 20
222 6 672 15 999 20 327 5 773 14 990 20 217 6 647 15 955 20 1045 16 1818 31
2450 46 347 8 916 19 1265 24 349 6 876 16 1170 25 294 8 661 15 815 15 154 0
521 7 815 15 294 8 828 20 1185 25 358 5 812 14 1010 20 198 6 610 15 915 20
513 9 631 16 630 38 0 4 -6 14 -13 23 -10 13 -35 16 -162 14 -344 -5 -1118 -5
-1123 0 -3 3 199 6 449 7 250 1 468 3 484 4 17 1 101 2 188 3 164 1 209 14 85
25 -80 7 -649 22 -768 20 -43 -1 -66 2 -55 7 11 4 -65 8 -170 8 -104 1 -233 3
-285 6 -52 2 -225 7 -385 10 -159 4 -292 8 -295 10 -10 6 -267 15 -640 21
-206 4 -364 11 -350 15 15 4 -6 6 -50 5 -41 0 -232 3 -425 7 -434 10 -577 15
-965 31 -149 6 -434 13 -620 16 -65 1 -96 5 -80 10 16 4 -2 7 -50 6 -41 -1
-244 3 -450 8 -206 5 -411 10 -455 11 -214 4 -297 7 -380 15 -90 9 -739 26
-869 23 -39 -1 -65 2 -59 5 6 4 -53 8 -130 9 -78 1 -331 8 -562 14 -231 7
-460 13 -510 13 -49 1 -94 4 -100 8 -5 3 -95 7 -200 8 -104 1 -260 4 -345 7
-85 3 -193 5 -240 5 -51 0 -73 2 -56 6 17 4 -69 8 -190 9 -249 3 -493 10 -804
22 -118 5 -232 7 -252 4 -23 -3 -38 -1 -38 5 0 6 -20 10 -47 9 -27 -1 -221 3
-433 8 -212 5 -410 10 -442 10 -31 0 -55 2 -53 5 2 3 -63 6 -143 7 -81 1 -217
5 -302 8 -85 3 -256 8 -380 11 -124 3 -281 8 -350 11 -69 3 -258 9 -420 13
-162 5 -378 12 -480 15 -102 4 -223 8 -270 9 -47 2 -164 5 -260 9 -96 3 -283
9 -415 13 -132 3 -272 9 -312 13 -39 4 -69 3 -67 -1 3 -4 -4 -8 -15 -8 -11 0
-22 4 -25 9 -3 5 -65 9 -138 10 -154 1 -481 9 -683 18 -77 3 -176 6 -220 7
-44 1 -181 6 -305 10 -328 10 -488 14 -640 15 -74 1 -130 5 -123 9 6 4 -19 7
-55 7 -86 0 -769 16 -932 21 -236 9 -315 12 -445 17 -71 3 -258 9 -414 12
-157 4 -315 10 -353 14 -40 4 -68 3 -68 -2 0 -5 -5 -5 -12 1 -8 6 -157 13
-373 18 -198 4 -403 9 -455 10 -96 2 -253 8 -480 18 -158 7 -663 19 -753 18
-37 0 -65 4 -62 8 3 5 -23 8 -57 7 -70 -2 -696 11 -883 19 -66 3 -176 7 -245
9 -69 2 -177 6 -240 9 -63 2 -252 7 -420 11 -168 4 -307 10 -310 14 -3 5 -27
8 -55 7 -55 -1 -713 14 -890 20 -217 8 -322 12 -425 18 -101 5 -695 20 -812
21 -31 0 -54 3 -52 6 2 4 -92 7 -209 8 -116 0 -250 3 -297 6 -47 2 -195 7
-330 11 -335 8 -442 12 -503 18 -29 3 -191 8 -362 11 -170 3 -329 7 -353 8
-23 1 -50 -1 -59 -4z m542 -514 c66 -62 138 -129 160 -150 22 -20 33 -33 24
-29 -15 8 -133 114 -233 209 -23 22 -70 66 -104 97 -34 32 -62 61 -62 64 0 7
41 -29 215 -191z m295 -273 c24 -23 42 -43 40 -46 -6 -5 -60 44 -105 95 -33
37 -18 26 65 -49z m71 -69 c13 -16 12 -17 -3 -4 -17 13 -22 21 -14 21 2 0 10
-8 17 -17z m170 -154 c63 -59 132 -123 154 -142 21 -20 37 -38 34 -41 -2 -3
-36 25 -74 62 -39 37 -115 109 -170 160 -55 52 -91 88 -79 80 12 -7 72 -61
135 -119z m25688 55 c2 -2 -20 -4 -50 -3 -41 1 -48 3 -29 9 22 7 68 3 79 -6z
m116 6 c4 -6 -10 -10 -35 -10 -25 0 -39 4 -35 10 3 6 19 10 35 10 16 0 32 -4
35 -10z m-236 -5 c-8 -7 -273 -13 -297 -6 -13 3 49 7 138 8 90 2 161 1 159 -2z
m-1211 -16 c41 0 51 -3 37 -9 -30 -13 -66 -11 -100 6 -16 8 -22 12 -12 9 10
-3 44 -5 75 -6z m642 0 c-129 -4 -242 -8 -250 -9 -8 -1 -26 -1 -40 0 -14 0
-41 -2 -60 -5 -22 -4 -49 -1 -69 7 -28 11 14 13 311 14 l343 1 -235 -8z m-990
-9 c11 -7 -2 -10 -43 -10 -36 0 -56 4 -52 10 8 13 75 13 95 0z m247 3 c-11
-11 -215 -14 -222 -3 -4 6 36 10 111 10 65 0 114 -3 111 -7z m255 -4 c-22 -7
-43 -7 -60 0 -23 8 -17 9 33 9 55 0 57 -1 27 -9z m-1017 -19 c-110 -3 -407 -6
-660 -6 l-460 0 385 6 c212 3 509 6 660 6 l275 1 -200 -7z m293 3 c-10 -2 -28
-2 -40 0 -13 2 -5 4 17 4 22 1 32 -1 23 -4z m-1447 -13 c11 0 19 -4 19 -10 0
-12 -43 -13 -55 -1 -6 5 -17 11 -25 14 -8 2 -2 3 14 1 16 -2 37 -4 47 -4z
m-221 -10 c11 -7 -1 -9 -40 -9 -42 1 -49 3 -30 9 35 11 53 11 70 0z m110 0 c0
-5 -13 -10 -30 -10 -16 0 -30 5 -30 10 0 6 14 10 30 10 17 0 30 -4 30 -10z
m-350 -10 c-80 -4 -153 -4 -162 -1 -10 4 55 7 145 7 l162 1 -145 -7z m-311 -4
c-14 -14 -1209 -29 -1209 -15 0 5 164 10 373 11 204 2 477 4 606 6 129 1 233
0 230 -2z m99 -3 c-15 -2 -42 -2 -60 0 -18 2 -6 4 27 4 33 0 48 -2 33 -4z
m-1378 -13 c0 -5 -7 -10 -15 -10 -8 0 -15 5 -15 10 0 6 7 10 15 10 8 0 15 -4
15 -10z m-170 -13 c-3 -3 -207 -8 -455 -12 -267 -4 -455 -11 -462 -17 -7 -5
-18 -6 -25 -2 -7 4 -28 11 -48 14 -19 4 71 7 200 9 129 1 235 3 236 4 1 1 128
4 281 5 153 2 276 2 273 -1z m98 -4 c-10 -2 -26 -2 -35 0 -10 3 -2 5 17 5 19
0 27 -2 18 -5z m125 0 c-7 -2 -19 -2 -25 0 -7 3 -2 5 12 5 14 0 19 -2 13 -5z
m-1778 -23 c24 -6 17 -8 -33 -9 -40 -1 -61 3 -57 9 7 11 46 11 90 0z m144 -6
c2 -2 -20 -4 -50 -3 -38 0 -48 3 -34 9 18 7 73 3 84 -6z m141 6 c18 -6 8 -8
-40 -9 -45 0 -60 2 -50 9 18 11 55 11 90 0z m130 0 c0 -5 -21 -10 -46 -10 -27
0 -43 4 -39 10 3 6 24 10 46 10 21 0 39 -4 39 -10z m105 0 c-3 -5 -15 -10 -25
-10 -10 0 -22 5 -25 10 -4 6 7 10 25 10 18 0 29 -4 25 -10z m-826 -11 c-36 -5
-85 -5 -110 -1 -33 6 -18 8 66 8 102 1 105 0 44 -7z m159 4 c-16 -2 -40 -2
-55 0 -16 2 -3 4 27 4 30 0 43 -2 28 -4z m-318 -7 c-3 -2 -129 -6 -280 -7
-169 -1 -280 -6 -288 -12 -9 -7 -28 -7 -62 2 -27 7 -55 9 -62 5 -19 -12 -208
-15 -208 -4 0 5 48 11 108 12 226 6 797 9 792 4z m-1375 -16 c-3 -5 -10 -10
-16 -10 -5 0 -9 5 -9 10 0 6 7 10 16 10 8 0 12 -4 9 -10z m435 0 c0 -5 -22
-10 -50 -10 -27 0 -50 5 -50 10 0 6 23 10 50 10 28 0 50 -4 50 -10z m-742 -15
c-2 -2 -200 -6 -439 -8 -239 -2 -335 -1 -214 2 297 8 659 11 653 6z m115 -2
c-13 -2 -35 -2 -50 0 -16 2 -5 4 22 4 28 0 40 -2 28 -4z m120 0 c-7 -2 -21 -2
-30 0 -10 3 -4 5 12 5 17 0 24 -2 18 -5z m285 0 c-10 -2 -26 -2 -35 0 -10 3
-2 5 17 5 19 0 27 -2 18 -5z m-1430 -13 c12 0 22 -4 22 -10 0 -14 -27 -12 -80
5 l-45 15 40 -5 c22 -2 50 -5 63 -5z m-238 -12 c0 -4 -48 -8 -107 -7 -60 0
-100 3 -91 7 25 10 198 10 198 0z m130 2 c0 -5 -15 -10 -34 -10 -19 0 -38 5
-41 10 -4 6 10 10 34 10 23 0 41 -4 41 -10z m-842 -13 c-38 -5 -83 -6 -104 -1
-28 7 -13 9 67 9 l104 1 -67 -9z m274 6 c-40 -2 -103 -2 -140 0 -37 2 -4 3 73
3 77 0 107 -2 67 -3z m185 0 c-20 -2 -52 -2 -70 0 -17 2 0 4 38 4 39 0 53 -2
32 -4z m-608 -7 c-2 -2 -126 -7 -274 -11 -429 -11 -579 -12 -590 -6 -5 3 82 8
195 11 304 8 674 11 669 6z m-956 -17 c-8 -8 -16 -8 -30 0 -16 9 -14 10 12 11
21 0 26 -3 18 -11z m-13039 -203 c33 -31 56 -56 52 -56 -8 0 -85 71 -201 184
l-70 69 80 -71 c44 -39 107 -96 139 -126z m12476 191 c-3 -3 -174 -8 -380 -12
-206 -3 -429 -8 -495 -9 -72 -2 -104 0 -80 4 22 4 141 8 264 9 124 1 226 3
227 4 2 1 108 4 236 5 128 2 231 1 228 -1z m98 -4 c-15 -2 -42 -2 -60 0 -18 2
-6 4 27 4 33 0 48 -2 33 -4z m220 0 c-32 -2 -84 -2 -115 0 -32 2 -6 3 57 3 63
0 89 -1 58 -3z m180 0 c-10 -2 -28 -2 -40 0 -13 2 -5 4 17 4 22 1 32 -1 23 -4z
m115 0 c-7 -2 -19 -2 -25 0 -7 3 -2 5 12 5 14 0 19 -2 13 -5z m-1773 -23 c11
-7 -3 -10 -45 -10 -42 0 -56 3 -45 10 8 5 29 10 45 10 17 0 37 -5 45 -10z
m115 0 c-3 -5 -19 -10 -35 -10 -16 0 -32 5 -35 10 -4 6 10 10 35 10 25 0 39
-4 35 -10z m-410 -11 c-22 -4 -56 -7 -75 -7 -32 1 -31 2 10 8 25 4 59 7 75 7
25 1 23 -1 -10 -8z m158 4 c-18 -2 -48 -2 -65 0 -18 2 -4 4 32 4 36 0 50 -2
33 -4z m-724 -7 c-2 -3 -103 -6 -224 -7 -121 -1 -228 -6 -238 -11 -9 -5 -34
-5 -55 -1 l-37 8 55 6 c65 7 505 11 499 5z m124 -3 c-18 -2 -48 -2 -65 0 -18
2 -4 4 32 4 36 0 50 -2 33 -4z m140 0 c-18 -2 -48 -2 -65 0 -18 2 -4 4 32 4
36 0 50 -2 33 -4z m135 0 c-15 -2 -42 -2 -60 0 -18 2 -6 4 27 4 33 0 48 -2 33
-4z m-1381 -9 c-3 -3 -12 -4 -19 -1 -8 3 -5 6 6 6 11 1 17 -2 13 -5z m148 -4
c-3 -5 -17 -10 -30 -10 -13 0 -27 5 -30 10 -4 6 8 10 30 10 22 0 34 -4 30 -10z
m272 3 c-11 -11 -226 -13 -232 -2 -4 5 42 9 116 9 67 0 119 -3 116 -7z m-569
-18 c-3 -3 -301 -8 -664 -11 -380 -3 -663 -9 -668 -15 -14 -12 -47 -11 -73 4
-18 10 28 13 245 15 147 2 268 5 269 5 4 5 896 6 891 2z m80 -2 c-10 -2 -26
-2 -35 0 -10 3 -2 5 17 5 19 0 27 -2 18 -5z m125 0 c-7 -2 -19 -2 -25 0 -7 3
-2 5 12 5 14 0 19 -2 13 -5z m-1903 -23 c18 -6 5 -8 -45 -9 -49 0 -65 2 -55 9
18 11 65 11 100 0z m105 0 c-3 -5 -22 -10 -41 -10 -21 0 -33 4 -29 10 3 6 22
10 41 10 21 0 33 -4 29 -10z m140 0 c-8 -13 -65 -13 -85 0 -11 7 0 10 38 10
33 0 51 -4 47 -10z m-502 -7 c-7 -2 -21 -2 -30 0 -10 3 -4 5 12 5 17 0 24 -2
18 -5z m105 0 c-15 -2 -42 -2 -60 0 -18 2 -6 4 27 4 33 0 48 -2 33 -4z m-293
-9 c-11 -2 -213 -6 -450 -9 -236 -3 -491 -7 -565 -8 -74 -2 -151 -1 -170 2
-19 3 51 8 155 11 211 6 1062 9 1030 4z m103 -1 c-16 -2 -40 -2 -55 0 -16 2
-3 4 27 4 30 0 43 -2 28 -4z m-1370 -10 c-10 -2 -26 -2 -35 0 -10 3 -2 5 17 5
19 0 27 -2 18 -5z m-493 -23 c-115 -4 -213 -4 -217 -1 -4 4 90 7 210 7 l217 1
-210 -7z m283 3 c-10 -2 -26 -2 -35 0 -10 3 -2 5 17 5 19 0 27 -2 18 -5z m140
0 c-10 -2 -26 -2 -35 0 -10 3 -2 5 17 5 19 0 27 -2 18 -5z m-660 -8 c-2 -3
-202 -5 -443 -5 -284 -1 -445 -5 -457 -11 -12 -6 -31 -7 -46 -3 -25 7 -23 8
18 14 52 8 936 12 928 5z m-1133 -15 c-3 -5 -26 -10 -51 -10 -28 0 -43 4 -39
10 3 6 26 10 51 10 28 0 43 -4 39 -10z m135 0 c0 -13 -80 -13 -100 0 -11 7 2
10 43 10 31 0 57 -4 57 -10z m-304 -12 c-32 -4 -81 -4 -110 0 -42 7 -31 8 59
8 96 0 103 -1 51 -8z m-501 -9 c-121 -5 -231 -9 -245 -10 -14 -1 -36 -1 -50
-1 -14 1 -169 0 -345 -2 -176 -2 -331 0 -345 3 -26 6 477 15 940 17 l265 1
-220 -8z m323 4 c-10 -2 -28 -2 -40 0 -13 2 -5 4 17 4 22 1 32 -1 23 -4z
m-1355 -10 c-13 -2 -35 -2 -50 0 -16 2 -5 4 22 4 28 0 40 -2 28 -4z m-426 -20
c-3 -3 -178 -7 -389 -10 -211 -3 -389 -9 -397 -13 -8 -4 -28 -4 -45 1 -40 12
-356 8 -376 -4 -10 -6 -30 -4 -57 5 -36 12 16 14 440 16 265 1 482 4 484 6 2
1 80 3 174 4 94 0 169 -2 166 -5z m111 0 c-15 -2 -42 -2 -60 0 -18 2 -6 4 27
4 33 0 48 -2 33 -4z m135 0 c-13 -2 -35 -2 -50 0 -16 2 -5 4 22 4 28 0 40 -2
28 -4z m-1803 -23 c18 -6 5 -8 -45 -8 -48 -1 -64 2 -50 8 25 11 62 11 95 0z
m140 0 c0 -5 -25 -10 -56 -10 -34 0 -53 4 -49 10 3 6 28 10 56 10 27 0 49 -4
49 -10z m90 0 c-20 -13 -57 -13 -65 0 -4 6 11 10 37 10 31 0 39 -3 28 -10z
m-367 -7 c-7 -2 -21 -2 -30 0 -10 3 -4 5 12 5 17 0 24 -2 18 -5z m-80 -10
c-13 -2 -33 -2 -45 0 -13 2 -3 4 22 4 25 0 35 -2 23 -4z"/>
<path d="M21608 18273 c7 -3 16 -2 19 1 4 3 -2 6 -13 5 -11 0 -14 -3 -6 -6z"/>
<path d="M11729 18205 c-3 -3 -61 -9 -130 -15 -284 -22 -538 -60 -889 -132
-257 -52 -664 -176 -910 -277 -309 -127 -543 -244 -810 -404 -838 -502 -1497
-1219 -1924 -2092 -78 -160 -136 -283 -136 -291 0 -3 -12 -31 -26 -62 -15 -31
-30 -68 -34 -82 -5 -14 -18 -50 -30 -80 -53 -137 -67 -179 -115 -335 -20 -66
-40 -131 -45 -145 -13 -40 -62 -235 -84 -330 -106 -464 -161 -947 -173 -1505
-10 -506 54 -1159 162 -1645 10 -41 21 -91 25 -110 4 -19 17 -71 29 -115 12
-44 31 -114 42 -155 46 -172 146 -452 241 -680 46 -109 219 -463 274 -560 234
-414 511 -778 849 -1116 325 -326 678 -596 1075 -823 195 -112 487 -254 695
-338 741 -300 1539 -443 2470 -443 1039 0 1906 177 2715 555 450 209 813 440
1190 754 139 117 414 388 535 531 801 936 1253 2115 1345 3510 13 197 13 789
0 985 -36 553 -123 1056 -262 1520 -25 84 -102 320 -116 355 -5 14 -18 45 -27
70 -10 25 -21 54 -26 65 -4 11 -31 75 -59 143 -28 68 -55 131 -60 140 -5 9
-43 87 -84 172 -492 1011 -1319 1831 -2346 2327 -96 46 -182 88 -190 92 -18 9
-229 97 -280 116 -19 7 -53 20 -75 28 -41 16 -145 53 -225 80 -56 19 -207 62
-315 90 -135 35 -186 47 -305 70 -297 59 -470 84 -810 119 -108 11 -1152 23
-1161 13z m1039 -2349 c339 -43 590 -106 868 -216 574 -228 1038 -612 1380
-1140 86 -132 212 -369 264 -495 5 -11 15 -36 23 -55 8 -19 20 -48 27 -65 11
-28 99 -292 119 -360 18 -58 70 -301 85 -395 32 -197 37 -242 52 -499 14 -240
14 -288 0 -530 -16 -260 -20 -307 -52 -501 -44 -269 -127 -573 -219 -800 -44
-110 -155 -341 -210 -440 -59 -104 -203 -316 -289 -425 -106 -134 -334 -359
-481 -473 -301 -233 -676 -420 -1070 -532 -26 -8 -69 -18 -250 -59 -49 -12
-225 -37 -355 -52 -52 -6 -203 -13 -335 -16 -453 -11 -870 47 -1250 172 -96
32 -123 42 -192 71 -17 8 -33 14 -36 14 -3 0 -45 18 -92 40 -47 22 -88 40 -89
40 -13 0 -278 153 -351 203 -320 217 -617 525 -840 872 -99 154 -262 482 -305
615 -5 14 -18 50 -29 80 -37 97 -125 424 -146 540 -3 19 -13 71 -21 115 -47
261 -70 678 -54 985 32 611 154 1103 391 1580 172 346 343 585 604 845 110
111 215 205 297 266 461 345 1038 563 1633 618 66 6 134 13 150 15 77 10 658
-3 773 -18z"/>
<path d="M22558 17743 c12 -2 32 -2 45 0 12 2 2 4 -23 4 -25 0 -35 -2 -22 -4z"/>
<path d="M24838 17673 c12 -2 30 -2 40 0 9 3 -1 5 -23 4 -22 0 -30 -2 -17 -4z"/>
<path d="M25293 17663 c9 -2 23 -2 30 0 6 3 -1 5 -18 5 -16 0 -22 -2 -12 -5z"/>
<path d="M26143 17633 c9 -2 23 -2 30 0 6 3 -1 5 -18 5 -16 0 -22 -2 -12 -5z"/>
<path d="M26578 17623 c6 -2 18 -2 25 0 6 3 1 5 -13 5 -14 0 -19 -2 -12 -5z"/>
<path d="M26973 17603 c9 -2 25 -2 35 0 9 3 1 5 -18 5 -19 0 -27 -2 -17 -5z"/>
<path d="M29088 17533 c12 -2 32 -2 45 0 12 2 2 4 -23 4 -25 0 -35 -2 -22 -4z"/>
<path d="M29708 17523 c7 -3 16 -2 19 1 4 3 -2 6 -13 5 -11 0 -14 -3 -6 -6z"/>
<path d="M30398 17493 c6 -2 18 -2 25 0 6 3 1 5 -13 5 -14 0 -19 -2 -12 -5z"/>
<path d="M30538 17493 c12 -2 30 -2 40 0 9 3 -1 5 -23 4 -22 0 -30 -2 -17 -4z"/>
<path d="M43453 17073 c9 -2 23 -2 30 0 6 3 -1 5 -18 5 -16 0 -22 -2 -12 -5z"/>
<path d="M43608 17073 c6 -2 18 -2 25 0 6 3 1 5 -13 5 -14 0 -19 -2 -12 -5z"/>
<path d="M44053 17063 c9 -2 23 -2 30 0 6 3 -1 5 -18 5 -16 0 -22 -2 -12 -5z"/>
<path d="M44903 17033 c9 -2 23 -2 30 0 6 3 -1 5 -18 5 -16 0 -22 -2 -12 -5z"/>
<path d="M45338 17023 c6 -2 18 -2 25 0 6 3 1 5 -13 5 -14 0 -19 -2 -12 -5z"/>
<path d="M45593 17003 c9 -2 25 -2 35 0 9 3 1 5 -18 5 -19 0 -27 -2 -17 -5z"/>
<path d="M45738 17003 c12 -2 30 -2 40 0 9 3 -1 5 -23 4 -22 0 -30 -2 -17 -4z"/>
<path d="M46198 16993 c7 -3 16 -2 19 1 4 3 -2 6 -13 5 -11 0 -14 -3 -6 -6z"/>
<path d="M47613 16793 c9 -2 25 -2 35 0 9 3 1 5 -18 5 -19 0 -27 -2 -17 -5z"/>
<path d="M47738 16793 c12 -2 30 -2 40 0 9 3 -1 5 -23 4 -22 0 -30 -2 -17 -4z"/>
<path d="M47878 16793 c7 -3 16 -2 19 1 4 3 -2 6 -13 5 -11 0 -14 -3 -6 -6z"/>
<path d="M50395 14974 c-22 -2 -98 -9 -170 -14 -880 -71 -1664 -499 -2130
-1165 -406 -579 -590 -1326 -535 -2160 66 -985 507 -1799 1235 -2280 521 -344
1098 -505 1811 -505 342 0 611 30 904 102 254 61 539 177 753 306 175 104 425
306 415 333 -6 15 -317 444 -552 762 -77 103 -144 187 -149 187 -5 0 -48 -29
-96 -64 -293 -218 -585 -341 -936 -392 -180 -27 -519 -25 -680 4 -489 87 -877
340 -1124 733 -57 92 -143 276 -180 387 -73 219 -101 390 -108 657 -4 170 -2
223 17 355 45 327 136 578 295 815 271 405 707 662 1215 716 398 42 812 -25
1148 -187 114 -54 321 -182 414 -256 14 -11 33 -18 41 -15 24 9 697 931 697
955 0 11 -130 122 -225 193 -382 286 -866 456 -1470 519 -105 11 -522 21 -590
14z"/>
<path d="M56446 14965 c-549 -49 -1008 -196 -1424 -457 -660 -414 -1093 -1087
-1241 -1928 -84 -481 -69 -1069 39 -1520 107 -446 296 -841 564 -1173 364
-453 903 -787 1506 -935 187 -46 272 -61 483 -83 325 -35 784 -19 1092 37 393
72 783 226 1109 439 302 197 605 509 799 822 289 469 440 1015 454 1648 13
577 -75 1054 -275 1504 -150 337 -309 570 -561 821 -468 468 -1097 751 -1821
820 -189 18 -547 21 -724 5z m605 -1221 c485 -53 900 -299 1160 -689 212 -316
319 -700 319 -1141 0 -859 -424 -1521 -1125 -1756 -203 -68 -368 -92 -630 -92
-278 0 -445 27 -668 108 -224 81 -392 189 -567 365 -245 247 -394 534 -470
911 -33 160 -43 309 -37 550 6 265 30 409 102 625 166 499 531 878 997 1036
177 59 293 80 583 102 58 5 191 -3 336 -19z"/>
<path d="M56659 13426 c-3 -3 -54 -13 -114 -22 -61 -9 -112 -20 -115 -24 -6
-7 -85 -31 -112 -33 -9 -1 -15 -4 -12 -8 2 -4 -12 -10 -31 -13 -19 -4 -35 -10
-35 -15 0 -4 -19 -14 -42 -21 -24 -8 -45 -17 -48 -20 -3 -4 -27 -20 -55 -36
-27 -15 -54 -32 -60 -36 -5 -5 -39 -30 -75 -57 -72 -54 -290 -277 -290 -297 0
-6 -53 -88 -61 -94 -16 -13 -129 -249 -129 -269 0 -6 -4 -11 -9 -11 -5 0 -12
-19 -15 -43 -4 -23 -13 -54 -20 -69 -8 -14 -17 -49 -21 -77 -4 -28 -10 -51
-14 -51 -13 0 -31 -206 -31 -342 0 -137 17 -330 30 -338 4 -3 11 -26 15 -53 4
-26 11 -50 15 -52 5 -3 14 -30 21 -60 7 -30 16 -55 21 -55 4 0 8 -6 8 -12 0
-7 12 -35 25 -63 14 -27 25 -56 25 -62 0 -7 4 -13 8 -13 4 0 13 -12 20 -27 21
-48 46 -89 87 -139 14 -18 25 -34 25 -38 0 -12 171 -191 240 -251 62 -54 163
-118 260 -166 36 -17 67 -35 70 -39 3 -3 26 -12 53 -20 26 -7 50 -16 52 -21 3
-4 26 -11 50 -15 25 -3 45 -10 45 -14 0 -4 39 -13 88 -20 48 -7 96 -16 107
-21 50 -24 515 12 535 41 3 4 21 11 40 15 19 4 40 11 45 15 6 4 29 14 53 21
23 6 42 15 42 19 0 5 12 11 28 15 15 3 34 12 42 20 8 7 26 16 40 20 14 4 27
10 30 14 3 3 39 28 80 56 90 60 123 87 215 180 93 94 135 141 135 154 0 5 6
14 13 18 16 10 75 101 113 173 16 30 32 56 37 58 4 2 7 9 7 15 0 7 11 35 25
62 13 28 25 58 25 68 0 9 4 17 8 17 5 0 15 26 22 58 7 31 16 62 20 67 4 6 11
35 15 65 4 30 13 58 19 62 15 10 16 526 1 536 -6 4 -16 34 -22 67 -14 73 -44
188 -52 195 -3 3 -13 25 -22 50 -30 80 -44 115 -50 120 -3 3 -12 19 -21 35
-28 55 -43 80 -76 127 -17 26 -32 49 -32 53 0 4 -6 12 -12 19 -7 7 -22 25 -33
41 -62 88 -304 302 -379 336 -14 7 -26 16 -26 20 0 4 -11 10 -25 13 -14 4 -25
10 -25 15 0 5 -20 14 -45 21 -25 7 -45 16 -45 21 0 4 -15 11 -32 15 -18 3 -42
12 -53 19 -11 7 -38 16 -60 20 -22 4 -42 10 -45 14 -12 17 -223 46 -360 49
-80 2 -148 1 -151 -2z"/>
<path d="M70435 14973 c-22 -1 -105 -8 -185 -13 -438 -33 -862 -146 -1170
-312 -469 -253 -752 -629 -842 -1118 -30 -166 -30 -448 0 -612 76 -408 286
-751 597 -973 118 -84 335 -192 495 -245 140 -47 201 -63 1045 -270 468 -115
622 -155 710 -186 93 -33 216 -96 275 -139 113 -83 203 -211 229 -325 16 -67
13 -227 -4 -295 -55 -209 -249 -365 -538 -434 -242 -57 -625 -58 -906 0 -193
39 -429 132 -559 220 -188 128 -372 330 -508 558 -27 44 -54 81 -61 81 -7 0
-61 -35 -120 -78 -60 -43 -279 -203 -488 -355 -209 -153 -393 -288 -410 -301
l-29 -24 28 -53 c133 -248 355 -511 575 -678 425 -324 916 -495 1600 -557 224
-20 685 -15 881 10 757 95 1291 378 1614 854 109 161 182 334 228 538 20 89
22 125 22 364 0 243 -2 277 -27 410 -55 304 -144 525 -290 720 -190 255 -470
458 -793 576 -142 51 -231 76 -469 129 -115 26 -248 56 -295 67 -47 10 -146
32 -220 48 -312 68 -590 131 -665 151 -344 90 -500 182 -586 343 -30 55 -34
71 -37 160 -3 64 0 113 9 140 85 269 416 422 956 442 643 24 1082 -132 1504
-533 42 -40 81 -73 86 -73 25 0 743 912 743 943 0 19 -182 192 -280 267 -348
265 -748 427 -1258 510 -231 38 -659 59 -857 43z"/>
<path d="M19343 14868 c-10 -17 -16 -5703 -6 -5823 l8 -90 615 -3 c569 -2 616
-1 628 15 9 13 12 350 12 1604 0 872 3 1600 6 1618 4 17 10 28 15 25 5 -3 9 0
9 5 0 6 14 24 31 41 24 22 41 30 70 30 20 0 43 2 51 5 13 5 16 1 83 -120 21
-38 60 -110 88 -160 27 -49 266 -490 529 -980 264 -489 485 -893 491 -897 7
-4 183 -8 393 -8 435 0 385 -12 449 105 133 244 221 406 243 445 13 25 100
185 192 355 92 171 176 326 187 345 11 19 89 163 173 320 84 157 174 321 199
365 26 44 57 101 71 126 13 25 28 46 34 45 6 0 42 15 80 33 49 24 77 31 97 27
18 -3 29 -1 29 6 0 6 3 8 8 4 4 -4 9 -760 12 -1679 l5 -1672 620 0 620 0 6
195 c8 252 8 5135 0 5470 l-6 255 -619 0 -619 0 -47 -80 c-72 -124 -364 -633
-740 -1290 -860 -1503 -999 -1741 -976 -1672 4 11 0 17 -12 18 -23 1 -53 7
-57 11 -10 9 -228 387 -553 953 -195 341 -504 881 -687 1200 -183 319 -370
644 -416 723 l-83 142 -612 0 c-479 0 -615 -3 -621 -12z"/>
<path d="M27252 14868 c-19 -19 -17 -5891 2 -5907 9 -8 182 -10 627 -9 l614 3
6 105 c4 58 7 790 8 1628 1 1264 3 1522 14 1522 8 0 19 11 25 24 16 36 50 54
107 57 l50 3 54 -94 c29 -52 269 -495 533 -985 264 -489 504 -934 534 -987
l55 -98 388 0 c299 0 391 3 398 13 9 11 99 170 198 352 39 71 198 364 550
1015 355 656 393 725 410 726 6 0 41 15 78 33 50 24 76 32 97 27 24 -4 30 -2
30 11 0 9 3 13 8 9 4 -4 9 -762 12 -1684 l5 -1677 620 0 620 0 0 2960 0 2960
-617 3 -618 2 -24 -37 c-13 -21 -121 -207 -239 -413 -221 -386 -766 -1340
-1144 -2000 -214 -372 -350 -600 -359 -600 -3 0 -3 4 0 9 3 5 -8 11 -24 13
-16 3 -31 1 -32 -4 -4 -11 -145 229 -493 837 -766 1337 -1006 1757 -1128 1967
l-132 228 -610 0 c-462 0 -614 -3 -623 -12z"/>
<path d="M35143 14868 c-10 -17 -16 -5528 -6 -5748 l8 -165 2009 -3 c1477 -1
2012 1 2022 9 12 9 14 110 13 558 0 300 -4 566 -7 591 l-7 45 -1355 5 c-1074
4 -1355 8 -1356 18 -4 37 -4 37 -13 24 -5 -9 -10 -1 -14 25 -10 55 -6 873 3
903 4 14 8 18 9 10 1 -9 9 -3 20 15 26 43 80 90 121 106 l35 14 -30 6 c-16 3
484 7 1112 10 628 2 1144 6 1147 9 11 12 18 546 11 863 l-7 337 -923 0 c-838
0 -1527 8 -1482 18 19 4 21 11 7 32 -9 13 -10 13 -11 0 0 -8 -5 -4 -9 10 -9
30 -13 878 -3 933 4 25 9 34 14 26 6 -10 9 -10 14 4 11 27 67 83 103 101 18 9
30 21 27 25 -2 5 5 11 18 15 12 3 592 6 1288 6 1080 0 1268 2 1278 14 14 17
12 1162 -2 1184 -7 9 -421 12 -2017 12 -1596 0 -2010 -3 -2017 -12z"/>
<path d="M40832 14868 c-9 -9 -12 -667 -12 -2952 0 -1618 4 -2947 8 -2954 7
-10 139 -12 628 -10 l619 3 6 95 c4 52 7 800 8 1663 1 1131 4 1567 12 1567 6
0 24 14 39 30 15 17 34 30 42 30 8 0 18 4 23 9 6 5 28 11 50 13 l39 3 106
-135 c59 -74 245 -317 415 -540 170 -223 343 -450 385 -505 82 -107 298 -391
915 -1200 585 -768 705 -925 750 -982 l40 -53 561 0 c422 0 563 3 572 12 9 9
12 670 11 2918 0 1598 -4 2925 -7 2950 l-7 45 -620 0 -620 0 -6 -250 c-3 -137
-7 -916 -8 -1730 -1 -814 -4 -1497 -8 -1518 -3 -21 -9 -34 -12 -29 -3 5 -23 7
-44 4 -30 -3 -37 -8 -33 -21 11 -32 -132 146 -385 479 -53 69 -183 240 -289
380 -107 140 -264 347 -350 460 -215 282 -514 675 -700 920 -86 113 -293 385
-460 605 -167 220 -356 468 -420 550 l-116 150 -560 3 c-427 2 -563 -1 -572
-10z"/>
<path d="M61342 14868 c-9 -9 -12 -667 -12 -2952 0 -1618 4 -2947 8 -2954 7
-10 139 -12 628 -10 l619 3 6 95 c4 52 7 800 8 1663 1 1131 4 1567 12 1567 6
0 24 14 39 30 15 17 34 30 42 30 8 0 18 4 23 9 6 5 28 11 50 13 l39 3 106
-135 c59 -74 245 -317 415 -540 170 -223 343 -450 385 -505 82 -107 298 -391
915 -1200 585 -768 705 -925 750 -982 l40 -53 561 0 c422 0 563 3 572 12 9 9
12 670 11 2918 0 1598 -4 2925 -7 2950 l-7 45 -620 0 -620 0 -6 -250 c-3 -137
-7 -916 -8 -1730 -1 -814 -4 -1497 -8 -1518 -3 -21 -9 -34 -12 -29 -3 5 -23 7
-44 4 -30 -3 -37 -8 -33 -21 11 -32 -132 146 -385 479 -53 69 -183 240 -289
380 -107 140 -264 347 -350 460 -215 282 -514 675 -700 920 -86 113 -293 385
-460 605 -167 220 -356 468 -420 550 l-116 150 -560 3 c-427 2 -563 -1 -572
-10z"/>
<path d="M79377 11960 c-38 -22 -71 -40 -74 -40 -3 0 -47 -25 -98 -55 -52 -30
-96 -55 -99 -55 -3 0 -55 -29 -117 -65 -61 -36 -114 -65 -117 -65 -3 0 -51
-27 -108 -60 -56 -33 -105 -60 -108 -60 -3 0 -55 -29 -116 -65 -61 -36 -113
-65 -116 -65 -3 0 -48 -25 -100 -55 -53 -30 -98 -55 -100 -55 -2 0 -59 -31
-125 -70 -66 -38 -122 -70 -125 -70 -4 0 -48 -25 -99 -55 -52 -30 -96 -55 -99
-55 -3 0 -55 -29 -117 -65 -61 -36 -114 -65 -117 -65 -3 0 -51 -27 -108 -60
-56 -33 -105 -60 -108 -60 -3 0 -55 -29 -116 -65 -61 -36 -114 -65 -117 -65
-4 0 -175 -96 -213 -121 -8 -5 -24 -13 -35 -18 -11 -5 -60 -32 -108 -60 -49
-28 -91 -51 -93 -51 -3 0 -47 -25 -99 -55 -51 -30 -95 -55 -98 -55 -3 0 -56
-29 -118 -65 -61 -36 -113 -65 -116 -65 -2 0 -51 -27 -108 -60 -57 -33 -106
-60 -109 -60 -3 0 -55 -29 -116 -65 -61 -36 -114 -65 -117 -65 -3 0 -47 -25
-98 -55 -52 -30 -96 -55 -99 -55 -2 0 -59 -31 -126 -70 -67 -38 -124 -70 -126
-70 -3 0 -47 -25 -99 -55 -51 -30 -95 -55 -98 -55 -3 0 -56 -29 -118 -65 -61
-36 -113 -65 -116 -65 -2 0 -51 -27 -108 -60 -57 -33 -106 -60 -109 -60 -3 0
-55 -29 -116 -65 -61 -36 -114 -65 -117 -65 -3 0 -47 -25 -98 -55 -52 -30 -96
-55 -99 -55 -3 0 -55 -29 -117 -65 -61 -36 -114 -65 -117 -65 -3 0 -51 -27
-108 -60 -56 -33 -105 -60 -108 -60 -3 0 -55 -29 -116 -65 -61 -36 -113 -65
-116 -65 -3 0 -48 -25 -100 -55 -53 -30 -97 -55 -99 -55 -2 0 -58 -31 -125
-70 -67 -38 -124 -70 -127 -70 -3 0 -47 -25 -98 -55 -52 -30 -96 -55 -99 -55
-3 0 -59 -31 -125 -70 -66 -38 -123 -70 -126 -70 -3 0 -52 -26 -108 -58 -147
-85 -272 -155 -349 -196 -37 -20 -90 -49 -118 -66 -28 -16 -53 -30 -55 -30 -2
0 -58 -31 -125 -70 -67 -38 -124 -70 -127 -70 -3 0 -47 -25 -98 -55 -52 -30
-96 -55 -99 -55 -3 0 -59 -31 -125 -70 -66 -38 -123 -70 -126 -70 -4 0 -48
-25 -100 -55 -51 -30 -95 -55 -98 -55 -3 0 -56 -29 -117 -65 -61 -36 -113 -65
-116 -65 -3 0 -52 -27 -108 -60 -57 -33 -105 -60 -108 -60 -3 0 -56 -29 -117
-65 -62 -36 -114 -65 -117 -65 -5 0 -174 -96 -214 -121 -8 -5 -24 -13 -36 -18
-11 -5 -55 -30 -98 -55 -43 -25 -80 -46 -83 -46 -5 0 -141 -77 -351 -197 -51
-29 -96 -53 -99 -53 -4 0 -175 -96 -213 -121 -8 -5 -24 -13 -35 -18 -11 -5
-60 -32 -108 -60 -49 -28 -91 -51 -93 -51 -3 0 -51 -26 -107 -59 -115 -66
-297 -167 -342 -191 -54 -29 -258 -143 -343 -192 -45 -26 -85 -48 -88 -48 -3
0 -51 -26 -107 -58 -94 -54 -292 -165 -327 -183 -8 -5 -58 -33 -112 -64 -53
-30 -99 -55 -102 -55 -3 0 -43 -22 -88 -49 -46 -26 -112 -64 -148 -83 -36 -20
-137 -76 -225 -125 -88 -49 -191 -107 -230 -127 -38 -21 -95 -53 -126 -72 -31
-19 -59 -34 -62 -34 -3 0 -60 -32 -126 -70 -66 -39 -123 -70 -125 -70 -2 0
-47 -25 -100 -55 -52 -30 -97 -55 -100 -55 -3 0 -59 -31 -125 -70 -66 -38
-122 -70 -125 -70 -3 0 -55 -29 -117 -65 -61 -36 -113 -65 -116 -65 -2 0 -47
-25 -99 -55 -53 -30 -98 -55 -101 -55 -3 0 -47 -25 -98 -55 -52 -30 -96 -55
-99 -55 -3 0 -60 -32 -128 -70 -68 -39 -130 -74 -138 -79 -40 -21 -236 -130
-327 -183 -56 -32 -104 -58 -107 -58 -3 0 -55 -29 -116 -65 -61 -36 -113 -65
-116 -65 -3 0 -48 -25 -100 -55 -53 -30 -98 -55 -100 -55 -3 0 -51 -26 -107
-59 -56 -32 -148 -83 -203 -114 -108 -60 -127 -80 -146 -152 -7 -25 -16 -45
-20 -45 -4 0 -10 -16 -14 -35 -3 -19 -10 -35 -14 -35 -4 0 -11 -12 -14 -28 -4
-15 -13 -40 -21 -57 -8 -16 -26 -61 -40 -100 -15 -38 -33 -84 -41 -102 -8 -17
-14 -35 -14 -40 -1 -4 -9 -26 -20 -48 -11 -22 -19 -48 -20 -57 0 -10 -4 -18
-10 -18 -5 0 -12 -16 -16 -35 -3 -19 -10 -35 -14 -35 -4 0 -13 -22 -20 -50 -7
-27 -15 -50 -20 -50 -4 0 -10 -13 -13 -30 -4 -16 -16 -50 -27 -74 -11 -25 -20
-52 -20 -60 0 -9 -4 -16 -10 -16 -5 0 -12 -16 -16 -35 -3 -19 -10 -35 -14 -35
-4 0 -13 -20 -19 -44 -6 -25 -15 -48 -21 -51 -5 -3 -10 -14 -10 -23 0 -9 -6
-29 -14 -44 -8 -14 -19 -43 -26 -63 -7 -20 -18 -49 -26 -63 -8 -15 -14 -31
-14 -35 0 -7 -17 -48 -56 -134 -8 -17 -14 -38 -14 -47 0 -9 -4 -16 -10 -16 -5
0 -9 -3 -8 -7 1 -9 -8 -36 -27 -78 -7 -16 -17 -41 -21 -55 -6 -23 -26 -71 -60
-147 -8 -17 -14 -38 -14 -47 0 -9 -4 -16 -9 -16 -5 0 -13 -15 -16 -32 -4 -18
-12 -39 -19 -47 -9 -12 -7 -12 14 -1 13 7 31 19 38 27 7 7 20 13 28 13 8 0 14
4 14 9 0 5 16 15 35 22 19 7 35 16 35 20 0 4 12 12 28 18 36 16 86 42 92 51 3
3 28 18 55 32 91 47 119 63 132 75 7 6 23 15 35 19 12 4 28 13 36 20 7 8 20
14 28 14 8 0 14 4 14 9 0 5 16 15 35 22 19 7 35 16 35 20 0 4 10 11 23 15 12
3 29 12 37 19 8 7 26 16 40 19 25 7 -108 -75 -210 -130 -30 -16 -57 -32 -60
-35 -3 -3 -36 -23 -75 -44 -87 -47 -268 -150 -316 -181 -30 -19 -36 -27 -32
-48 3 -14 12 -26 20 -26 9 0 135 68 282 152 146 83 757 431 1356 773 600 342
1383 788 1740 992 1119 638 2539 1447 3355 1913 432 246 1073 612 1425 812
352 201 1396 796 2320 1323 924 527 1871 1067 2105 1200 668 381 2078 1185
2723 1553 324 184 595 345 603 357 16 24 474 1545 474 1574 0 21 -20 33 -38
22 -6 -3 -14 -20 -18 -36 -4 -17 -10 -34 -14 -40 -4 -5 -11 -30 -15 -55 -5
-25 -10 -39 -12 -32 -5 14 16 112 27 127 4 6 11 26 15 45 4 19 14 45 22 57 9
13 14 23 12 23 -2 0 -35 -18 -72 -40z m-32 -307 c-35 -123 -43 -148 -44 -125
-1 12 8 48 18 80 11 31 23 75 27 97 4 22 10 33 12 23 1 -9 -4 -42 -13 -75z
m-62 -216 c-8 -29 -18 -61 -24 -72 -5 -11 -13 -38 -19 -60 -9 -39 -9 -39 -4
10 3 28 12 63 19 78 8 15 17 48 21 73 4 26 10 41 14 34 4 -6 1 -35 -7 -63z
m-69 -232 c-9 -27 -20 -58 -25 -67 -5 -10 -9 -24 -9 -32 0 -17 -47 -174 -59
-196 -5 -9 -12 -36 -16 -60 -4 -25 -10 -39 -12 -32 -5 14 16 112 27 127 4 6
11 29 15 53 4 23 10 42 15 42 4 0 11 21 15 47 4 26 13 59 20 73 7 14 16 45 20
68 4 24 11 40 16 35 4 -4 1 -30 -7 -58z m-124 -419 c0 -8 -4 -17 -9 -20 -5 -3
-12 -26 -15 -51 -4 -25 -11 -45 -15 -45 -5 0 -12 -21 -17 -47 -5 -29 -9 -39
-11 -27 -2 12 5 48 15 80 11 33 23 74 27 92 7 32 25 45 25 18z m-70 -230 c0
-8 -4 -17 -9 -20 -5 -3 -12 -26 -15 -51 -4 -24 -11 -47 -16 -50 -4 -3 -11 -23
-15 -45 -4 -22 -10 -40 -15 -40 -5 0 -41 -19 -82 -43 -40 -24 -98 -57 -128
-74 -80 -44 -120 -66 -271 -154 -75 -44 -141 -79 -148 -79 -6 0 -11 -3 -11 -8
0 -4 -21 -18 -47 -32 -27 -13 -96 -52 -155 -86 -59 -35 -110 -59 -113 -54 -3
5 4 12 16 15 12 4 74 38 139 76 65 38 123 69 129 69 6 0 11 4 11 9 0 5 15 14
33 22 17 7 34 16 37 19 6 8 56 35 93 51 15 6 27 15 27 19 0 4 12 13 28 19 15
6 34 15 42 20 8 6 60 35 115 66 55 31 107 60 115 66 8 5 26 15 40 21 14 7 27
15 30 19 6 7 59 36 82 45 10 4 20 22 24 43 4 20 12 47 19 61 7 14 16 44 20 68
6 39 25 60 25 28z m-1100 -791 c-41 -24 -81 -44 -87 -45 -7 0 -13 -3 -13 -8 0
-4 -21 -18 -47 -31 -27 -14 -93 -51 -149 -83 -55 -32 -106 -58 -112 -58 -6 0
-12 -4 -14 -8 -3 -8 -123 -80 -158 -95 -8 -4 -22 -11 -30 -17 -45 -30 -120
-68 -120 -62 0 8 215 132 230 132 5 0 10 4 10 9 0 5 12 14 28 20 33 14 85 43
92 53 3 4 17 12 30 17 14 6 57 29 95 52 39 22 82 45 98 52 15 6 27 14 27 18 0
4 15 13 33 20 17 7 38 19 45 26 7 7 20 13 28 13 8 0 14 4 14 9 0 5 12 14 28
19 53 20 46 11 -28 -33z m-741 -419 c-7 -6 -370 -216 -374 -216 -2 0 -27 -13
-55 -30 -27 -16 -50 -26 -50 -22 0 9 213 132 229 132 6 0 11 4 11 10 0 5 11
12 25 16 14 3 25 10 25 14 0 5 16 14 35 21 19 7 35 16 35 20 0 4 12 12 28 18
15 7 38 18 52 26 22 13 50 21 39 11z m-579 -332 c-52 -31 -120 -70 -150 -86
-30 -16 -62 -34 -70 -39 -94 -56 -170 -97 -170 -91 0 4 -4 2 -8 -4 -14 -21
-312 -189 -312 -176 0 4 26 21 58 37 31 17 59 33 62 36 3 3 30 19 60 35 30 16
57 32 60 36 3 4 17 12 30 17 14 6 57 29 95 52 39 22 82 45 98 52 15 6 27 14
27 18 0 4 15 13 33 20 17 7 38 19 45 26 7 7 20 13 28 13 8 0 14 4 14 9 0 5 16
15 35 22 19 7 35 16 35 20 0 4 12 12 28 18 15 7 38 18 52 26 14 8 30 15 35 15
6 0 -33 -26 -85 -56z m-775 -440 c-64 -39 -298 -173 -377 -217 -27 -15 -48
-23 -48 -19 0 8 145 92 160 92 5 0 10 4 10 9 0 5 15 14 33 22 17 7 34 16 37
19 5 7 32 22 90 52 14 7 27 15 30 18 9 10 105 59 115 60 6 0 -17 -16 -50 -36z
m-520 -297 c-49 -29 -115 -66 -145 -83 -30 -16 -57 -32 -60 -35 -3 -3 -41 -25
-85 -49 -44 -23 -86 -47 -92 -53 -7 -5 -13 -6 -13 -1 0 10 143 94 160 94 5 0
10 4 10 9 0 5 15 15 33 22 17 7 38 19 45 26 7 7 20 13 28 13 8 0 14 4 14 9 0
5 16 15 35 21 19 6 35 15 35 19 0 3 12 12 28 19 15 7 38 19 52 27 14 8 30 15
35 15 6 0 -30 -24 -80 -53z m-494 -282 c-140 -83 -213 -124 -243 -136 -16 -6
-28 -15 -28 -20 0 -5 -4 -9 -9 -9 -8 0 -367 -202 -411 -231 -8 -5 -27 -15 -42
-22 -16 -6 -28 -15 -28 -19 0 -4 -5 -8 -11 -8 -8 0 -329 -181 -409 -230 -8 -6
-31 -18 -50 -28 -19 -10 -83 -46 -142 -80 -59 -34 -111 -62 -117 -62 -5 0 -11
-4 -13 -8 -3 -8 -43 -32 -153 -92 -33 -18 -117 -66 -187 -107 -69 -40 -131
-73 -137 -73 -6 0 -11 -4 -11 -9 0 -5 -15 -14 -32 -22 -18 -7 -35 -16 -38 -19
-3 -4 -34 -23 -70 -42 -62 -33 -319 -179 -350 -199 -8 -5 -26 -15 -40 -22 -14
-7 -44 -25 -67 -40 -24 -15 -45 -27 -48 -27 -4 0 -55 -29 -115 -64 -60 -36
-112 -61 -115 -56 -3 5 6 12 20 16 14 3 25 10 25 14 0 5 16 14 35 20 19 6 35
16 35 21 0 5 5 9 11 9 6 0 57 27 113 60 57 33 108 60 114 60 7 0 12 4 12 10 0
5 11 12 25 16 14 3 25 10 25 14 0 5 16 14 35 20 19 6 35 15 35 20 0 5 10 12
21 15 12 4 74 38 139 76 65 38 123 69 129 69 6 0 11 4 11 9 0 5 15 14 33 22
17 7 34 16 37 20 3 3 30 19 60 35 30 15 57 31 60 35 3 4 17 13 30 18 14 6 32
15 40 20 62 40 281 161 289 161 6 0 11 4 11 9 0 5 15 14 33 22 17 7 34 15 37
19 3 3 16 11 30 18 14 6 52 28 85 47 33 20 76 43 95 53 19 9 40 22 46 27 6 6
33 22 60 35 27 14 55 31 62 38 7 6 20 12 28 12 8 0 14 4 14 9 0 5 16 15 35 22
19 7 35 16 35 20 0 4 12 12 28 18 15 6 54 27 87 46 33 19 76 43 95 53 19 9 37
20 40 23 3 3 30 19 60 35 30 16 57 32 60 35 7 8 58 35 93 50 15 6 27 15 27 19
0 5 9 12 21 15 11 4 63 31 114 61 52 30 99 54 104 54 6 0 11 3 11 8 0 4 26 21
57 37 32 17 64 36 71 43 7 6 20 12 27 12 7 0 20 6 27 13 7 7 24 18 38 25 14 7
36 19 50 27 14 8 30 15 35 15 6 0 -32 -25 -84 -55z m-2936 -1676 c-38 -23 -79
-45 -90 -50 -11 -5 -27 -13 -35 -19 -28 -18 -433 -250 -437 -250 -2 0 -42 -22
-89 -50 -46 -27 -84 -45 -84 -40 0 6 8 14 18 17 15 6 233 129 272 154 8 5 26
15 40 21 14 7 27 15 30 19 5 6 22 15 95 53 17 9 57 32 90 51 33 19 76 43 95
53 19 9 41 23 48 30 7 6 20 12 28 12 8 0 14 4 14 9 0 5 12 14 28 19 53 20 46
11 -23 -29z m-830 -472 c-49 -29 -115 -66 -145 -83 -30 -16 -60 -35 -68 -41
-7 -7 -17 -13 -22 -13 -5 0 -42 -20 -84 -45 -41 -24 -78 -40 -81 -35 -3 5 4
12 16 15 12 4 63 31 114 61 50 30 97 54 103 54 7 0 12 4 12 10 0 5 11 12 25
16 14 3 25 10 25 14 0 5 16 14 35 21 19 7 35 16 35 20 0 4 12 12 28 18 15 7
38 18 52 26 14 8 30 15 35 15 6 0 -30 -24 -80 -53z m-475 -272 c-41 -24 -80
-44 -87 -45 -6 0 -13 -4 -15 -9 -4 -11 -138 -83 -138 -73 0 4 26 21 57 37 32
17 64 35 70 42 7 6 23 15 35 19 12 4 28 13 36 20 7 8 20 14 28 14 8 0 14 4 14
9 0 5 12 14 28 19 53 20 46 11 -28 -33z m-280 -156 c-30 -19 -380 -220 -432
-249 -10 -6 -18 -7 -18 -3 0 9 214 133 229 133 5 0 11 4 13 8 2 5 15 15 30 23
116 61 155 83 172 95 11 8 25 14 31 14 5 0 -6 -10 -25 -21z m-461 -263 c-7 -7
-370 -216 -374 -216 -2 0 -27 -13 -55 -30 -27 -16 -50 -26 -50 -22 0 8 145 92
160 92 5 0 10 4 10 9 0 5 15 14 33 22 17 7 34 16 37 19 5 7 32 22 90 52 14 7
27 15 30 18 3 3 16 11 30 18 14 7 36 19 50 27 22 13 50 21 39 11z m-574 -329
c-49 -29 -115 -66 -145 -83 -30 -16 -57 -32 -60 -35 -3 -3 -41 -25 -85 -49
-44 -23 -86 -47 -92 -53 -7 -5 -13 -6 -13 -1 0 10 143 94 160 94 5 0 10 4 10
9 0 5 15 15 33 22 17 7 38 19 45 26 7 7 20 13 28 13 8 0 14 4 14 9 0 5 15 14
33 22 17 7 34 15 37 19 3 3 16 11 30 18 14 7 36 19 50 27 14 8 30 15 35 15 6
0 -30 -24 -80 -53z m-500 -286 c-115 -67 -194 -112 -245 -139 -19 -10 -105
-59 -191 -109 -205 -120 -269 -155 -269 -144 0 4 10 13 23 19 12 6 54 30 92
52 39 22 81 45 95 52 14 7 27 16 30 20 3 4 17 12 30 17 14 6 52 27 85 46 33
20 76 43 95 53 19 9 37 20 40 23 3 3 30 19 60 35 30 16 57 32 60 36 3 4 17 12
30 18 14 6 43 21 65 35 50 30 77 44 90 44 6 1 -35 -26 -90 -58z m-720 -411
c-3 -5 -10 -10 -14 -10 -5 0 -69 -35 -142 -78 -74 -43 -159 -92 -189 -109 -30
-16 -72 -40 -92 -51 -21 -12 -38 -18 -38 -14 0 8 145 92 160 92 5 0 10 4 10 9
0 5 16 15 35 22 19 7 35 16 35 20 0 4 12 12 28 18 34 15 85 42 92 50 7 9 104
60 113 61 5 0 5 -4 2 -10z m-570 -323 c-49 -29 -115 -66 -145 -83 -30 -16 -57
-32 -60 -35 -3 -3 -30 -19 -60 -36 -119 -65 -404 -227 -430 -244 -8 -5 -27
-15 -42 -22 -16 -6 -28 -15 -28 -19 0 -4 -4 -8 -10 -8 -5 0 -111 -58 -234
-130 -124 -71 -226 -130 -229 -130 -2 0 -109 -61 -236 -135 -128 -74 -234
-135 -237 -135 -2 0 -62 -34 -133 -75 -71 -41 -134 -75 -139 -75 -6 0 -12 -4
-14 -8 -1 -5 -64 -43 -138 -84 -74 -42 -158 -89 -187 -106 -29 -17 -55 -27
-58 -22 -3 5 4 12 16 15 18 6 225 122 279 156 8 5 26 15 40 21 14 7 27 15 30
19 3 4 30 19 60 35 30 15 61 34 68 41 7 7 17 13 22 13 5 0 79 41 164 90 85 50
160 90 165 90 6 0 11 4 11 9 0 5 15 14 33 22 17 7 34 15 37 19 3 3 16 11 30
18 14 6 52 28 85 47 33 20 76 43 95 53 19 9 40 22 46 27 6 6 33 22 60 35 27
14 51 28 54 31 7 8 58 35 93 50 15 6 27 15 27 20 0 5 5 9 11 9 6 0 57 27 113
60 57 33 108 60 114 60 7 0 12 3 12 8 0 4 26 21 58 37 31 17 59 33 62 37 3 4
17 12 30 18 14 6 43 21 65 35 22 13 47 27 55 31 8 5 56 32 107 61 51 29 97 53
102 53 6 0 11 3 11 8 0 4 26 21 57 37 32 17 64 36 71 43 7 6 20 12 27 12 7 0
20 6 27 13 18 16 110 66 123 67 6 0 -30 -24 -80 -53z m-2455 -1402 c-41 -24
-81 -44 -87 -45 -7 0 -13 -4 -13 -8 0 -5 -16 -16 -35 -25 -58 -28 -39 -3 23
28 31 17 59 33 62 37 3 4 17 12 30 18 14 6 36 17 50 25 14 8 30 15 35 15 6 0
-24 -20 -65 -45z m-182 -100 c-7 -7 -439 -255 -444 -255 -2 0 -26 -13 -54 -30
-27 -16 -50 -26 -50 -22 1 9 163 102 179 102 6 0 11 4 11 10 0 5 11 12 25 16
14 3 25 10 25 14 0 5 16 14 35 20 19 6 35 15 35 20 0 4 12 13 28 19 15 6 34
15 42 20 87 55 190 108 168 86z m-559 -319 c-7 -7 -370 -216 -374 -216 -2 0
-27 -13 -55 -30 -27 -16 -50 -26 -50 -22 0 8 215 132 230 132 5 0 10 4 10 9 0
5 12 14 28 20 33 14 85 43 92 53 3 4 17 12 30 18 14 6 36 17 50 25 22 13 50
21 39 11z"/>
<path d="M14703 3793 c9 -2 23 -2 30 0 6 3 -1 5 -18 5 -16 0 -22 -2 -12 -5z"/>
<path d="M14613 3783 c9 -2 25 -2 35 0 9 3 1 5 -18 5 -19 0 -27 -2 -17 -5z"/>
</g>
</svg>
